<mxfile host="Electron" agent="Mozilla/5.0 (Windows NT 10.0; Win64; x64) AppleWebKit/537.36 (KHTML, like Gecko) draw.io/26.2.2 Chrome/134.0.6998.178 Electron/35.1.2 Safari/537.36" version="26.2.2" pages="9">
  <diagram name="Page-1" id="Nj2k43MbdoFLNwcvrzeb">
    <mxGraphModel dx="2485" dy="1370" grid="1" gridSize="10" guides="1" tooltips="1" connect="1" arrows="1" fold="1" page="1" pageScale="1" pageWidth="1070" pageHeight="500" math="0" shadow="0">
      <root>
        <mxCell id="0" />
        <mxCell id="1" parent="0" />
        <mxCell id="rdGGdM1GG53VOAihpES3-2" value="A&lt;sub&gt;11&lt;/sub&gt;" style="shape=ext;double=1;rounded=0;whiteSpace=wrap;html=1;fillColor=#f8cecc;strokeColor=#b85450;dashed=1;strokeWidth=5;fontStyle=1;fontSize=26;dashPattern=1 1;" vertex="1" parent="1">
          <mxGeometry x="408" y="21" width="100" height="100" as="geometry" />
        </mxCell>
        <mxCell id="rdGGdM1GG53VOAihpES3-3" value="A&lt;sub&gt;12&lt;/sub&gt;" style="shape=ext;double=1;rounded=0;whiteSpace=wrap;html=1;fillColor=#dae8fc;strokeColor=#6c8ebf;dashed=1;strokeWidth=5;fontStyle=1;fontSize=26;dashPattern=1 1;" vertex="1" parent="1">
          <mxGeometry x="528" y="21" width="100" height="100" as="geometry" />
        </mxCell>
        <mxCell id="rdGGdM1GG53VOAihpES3-4" value="原问题" style="shape=ext;double=1;rounded=0;whiteSpace=wrap;html=1;fillColor=#f5f5f5;strokeColor=#666666;fontColor=#333333;dashed=1;strokeWidth=5;fontStyle=1;fontSize=26;dashPattern=1 1;" vertex="1" parent="1">
          <mxGeometry x="18" y="31" width="200" height="200" as="geometry" />
        </mxCell>
        <mxCell id="rdGGdM1GG53VOAihpES3-5" value="A&lt;sub&gt;21&lt;/sub&gt;" style="shape=ext;double=1;rounded=0;whiteSpace=wrap;html=1;fillColor=#dae8fc;strokeColor=#6c8ebf;dashed=1;strokeWidth=5;fontStyle=1;fontSize=26;dashPattern=1 1;" vertex="1" parent="1">
          <mxGeometry x="408" y="141" width="100" height="100" as="geometry" />
        </mxCell>
        <mxCell id="rdGGdM1GG53VOAihpES3-6" value="A&lt;sub&gt;22&lt;/sub&gt;" style="shape=ext;double=1;rounded=0;whiteSpace=wrap;html=1;fillColor=#dae8fc;strokeColor=#6c8ebf;dashed=1;strokeWidth=5;fontStyle=1;fontSize=26;dashPattern=1 1;" vertex="1" parent="1">
          <mxGeometry x="528" y="141" width="100" height="100" as="geometry" />
        </mxCell>
        <mxCell id="rdGGdM1GG53VOAihpES3-7" value="" style="html=1;verticalLabelPosition=bottom;labelBackgroundColor=#ffffff;verticalAlign=top;shadow=0;dashed=1;strokeWidth=20;shape=mxgraph.ios7.misc.right;strokeColor=#9673a6;resizeWidth=1;resizeHeight=1;fillColor=#e1d5e7;dashPattern=8 8;fontStyle=1;fontSize=26;" vertex="1" parent="1">
          <mxGeometry x="698" y="86" width="50" height="90" as="geometry" />
        </mxCell>
        <mxCell id="rdGGdM1GG53VOAihpES3-8" value="" style="html=1;verticalLabelPosition=bottom;labelBackgroundColor=#ffffff;verticalAlign=top;shadow=0;dashed=1;strokeWidth=20;shape=mxgraph.ios7.misc.right;strokeColor=#9673a6;resizeWidth=1;resizeHeight=1;fillColor=#e1d5e7;dashPattern=8 8;fontStyle=1;fontSize=26;" vertex="1" parent="1">
          <mxGeometry x="288" y="86" width="50" height="90" as="geometry" />
        </mxCell>
        <mxCell id="rdGGdM1GG53VOAihpES3-9" value="A&lt;sub&gt;22&lt;/sub&gt;" style="shape=ext;double=1;rounded=0;whiteSpace=wrap;html=1;fillColor=#f5f5f5;strokeColor=#666666;dashed=1;strokeWidth=5;fontStyle=1;fontSize=26;dashPattern=1 1;fontColor=#333333;" vertex="1" parent="1">
          <mxGeometry x="418" y="281" width="200" height="200" as="geometry" />
        </mxCell>
        <mxCell id="rdGGdM1GG53VOAihpES3-10" value="" style="html=1;shadow=0;dashed=0;align=center;verticalAlign=middle;shape=mxgraph.arrows2.jumpInArrow;dy=15;dx=38;arrowHead=55;rotation=-180;fillColor=#e1d5e7;strokeColor=#9673a6;strokeWidth=5;" vertex="1" parent="1">
          <mxGeometry x="673" y="262" width="255" height="169" as="geometry" />
        </mxCell>
        <mxCell id="rdGGdM1GG53VOAihpES3-11" value="" style="html=1;shadow=0;dashed=0;align=center;verticalAlign=middle;shape=mxgraph.arrows2.jumpInArrow;dy=15;dx=38;arrowHead=55;rotation=-90;fillColor=#e1d5e7;strokeColor=#9673a6;strokeWidth=5;" vertex="1" parent="1">
          <mxGeometry x="140" y="208" width="175" height="271" as="geometry" />
        </mxCell>
        <mxCell id="rdGGdM1GG53VOAihpES3-12" value="" style="shape=partialRectangle;whiteSpace=wrap;html=1;bottom=1;right=1;left=1;top=0;fillColor=none;routingCenterX=-0.5;rotation=90;strokeWidth=5;strokeColor=#440089;" vertex="1" parent="1">
          <mxGeometry x="-224" y="235" width="487" height="31" as="geometry" />
        </mxCell>
        <mxCell id="rdGGdM1GG53VOAihpES3-13" value="L&lt;sub&gt;11&lt;/sub&gt;&amp;nbsp;U&lt;sub&gt;11&lt;/sub&gt;" style="shape=ext;double=1;rounded=0;whiteSpace=wrap;html=1;fillColor=#f8cecc;strokeColor=#b85450;dashed=1;strokeWidth=5;fontStyle=1;fontSize=26;dashPattern=1 1;" vertex="1" parent="1">
          <mxGeometry x="818" y="21" width="100" height="100" as="geometry" />
        </mxCell>
        <mxCell id="rdGGdM1GG53VOAihpES3-14" value="A&lt;sub&gt;12&lt;/sub&gt;" style="shape=ext;double=1;rounded=0;whiteSpace=wrap;html=1;fillColor=#d5e8d4;strokeColor=#82b366;dashed=1;strokeWidth=5;fontStyle=1;fontSize=26;dashPattern=1 1;" vertex="1" parent="1">
          <mxGeometry x="938" y="21" width="100" height="100" as="geometry" />
        </mxCell>
        <mxCell id="rdGGdM1GG53VOAihpES3-15" value="A&lt;sub&gt;21&lt;/sub&gt;" style="shape=ext;double=1;rounded=0;whiteSpace=wrap;html=1;fillColor=#d5e8d4;strokeColor=#82b366;dashed=1;strokeWidth=5;fontStyle=1;fontSize=26;dashPattern=1 1;" vertex="1" parent="1">
          <mxGeometry x="818" y="141" width="100" height="100" as="geometry" />
        </mxCell>
        <mxCell id="rdGGdM1GG53VOAihpES3-16" value="A&lt;sub&gt;22&lt;/sub&gt;" style="shape=ext;double=1;rounded=0;whiteSpace=wrap;html=1;fillColor=#f5f5f5;strokeColor=#666666;dashed=1;strokeWidth=5;fontStyle=1;fontSize=26;dashPattern=1 1;fontColor=#333333;" vertex="1" parent="1">
          <mxGeometry x="938" y="141" width="100" height="100" as="geometry" />
        </mxCell>
        <mxCell id="rdGGdM1GG53VOAihpES3-17" value="" style="endArrow=none;html=1;rounded=0;entryX=0;entryY=0;entryDx=0;entryDy=0;exitX=1;exitY=1;exitDx=0;exitDy=0;fillColor=#f8cecc;strokeColor=#b85450;strokeWidth=3;fontStyle=1;fontSize=26;dashed=1;dashPattern=1 1;" edge="1" parent="1" source="rdGGdM1GG53VOAihpES3-13" target="rdGGdM1GG53VOAihpES3-13">
          <mxGeometry width="50" height="50" relative="1" as="geometry">
            <mxPoint x="838" y="171" as="sourcePoint" />
            <mxPoint x="888" y="121" as="targetPoint" />
          </mxGeometry>
        </mxCell>
        <mxCell id="rdGGdM1GG53VOAihpES3-18" value="" style="shape=partialRectangle;whiteSpace=wrap;html=1;bottom=1;right=1;left=1;top=0;fillColor=none;routingCenterX=-0.5;rotation=-90;strokeWidth=5;strokeColor=#440089;" vertex="1" parent="1">
          <mxGeometry x="979.13" y="179.37" width="120" height="23.25" as="geometry" />
        </mxCell>
        <mxCell id="rdGGdM1GG53VOAihpES3-19" value="" style="shape=partialRectangle;whiteSpace=wrap;html=1;bottom=1;right=1;left=1;top=0;fillColor=none;routingCenterX=-0.5;rotation=-90;strokeWidth=5;strokeColor=#440089;" vertex="1" parent="1">
          <mxGeometry x="806" y="235" width="487" height="31" as="geometry" />
        </mxCell>
        <mxCell id="rdGGdM1GG53VOAihpES3-20" value="" style="shape=partialRectangle;whiteSpace=wrap;html=1;bottom=1;right=1;left=1;top=0;fillColor=none;routingCenterX=-0.5;rotation=90;strokeWidth=5;strokeColor=#440089;" vertex="1" parent="1">
          <mxGeometry x="878" y="179.38" width="120" height="23.25" as="geometry" />
        </mxCell>
        <mxCell id="rdGGdM1GG53VOAihpES3-21" value="&lt;b&gt;&lt;font style=&quot;font-size: 24px; color: rgb(68, 0, 137);&quot;&gt;LINPACK-矩阵分块LU&lt;/font&gt;&lt;/b&gt;" style="text;html=1;align=center;verticalAlign=middle;resizable=0;points=[];autosize=1;strokeColor=none;fillColor=none;" vertex="1" parent="1">
          <mxGeometry x="798" y="449" width="260" height="40" as="geometry" />
        </mxCell>
      </root>
    </mxGraphModel>
  </diagram>
  <diagram id="7up_KfDUSU9ruogjCcvm" name="Page-2">
    <mxGraphModel dx="1169" dy="645" grid="1" gridSize="10" guides="1" tooltips="1" connect="1" arrows="1" fold="1" page="1" pageScale="1" pageWidth="265" pageHeight="285" math="0" shadow="0">
      <root>
        <mxCell id="0" />
        <mxCell id="1" parent="0" />
        <mxCell id="3PjDj1WgWYQCvYvSHPeX-1" value="" style="html=1;verticalLabelPosition=bottom;align=center;labelBackgroundColor=#ffffff;verticalAlign=top;strokeWidth=2;strokeColor=#0080F0;shadow=0;dashed=0;shape=mxgraph.ios7.icons.data;rotation=90;" vertex="1" parent="1">
          <mxGeometry x="54" y="62.89" width="10" height="19.1" as="geometry" />
        </mxCell>
        <mxCell id="3PjDj1WgWYQCvYvSHPeX-2" value="" style="whiteSpace=wrap;html=1;dashed=1;strokeColor=#1F1F1F;fillColor=none;strokeWidth=3;shadow=1;" vertex="1" parent="1">
          <mxGeometry x="10" y="33.88" width="98" height="210" as="geometry" />
        </mxCell>
        <mxCell id="3PjDj1WgWYQCvYvSHPeX-3" value="&lt;font style=&quot;font-size: 8px;&quot;&gt;&lt;b style=&quot;&quot;&gt;&lt;font style=&quot;&quot;&gt;训练/推理&lt;/font&gt;&lt;/b&gt;&lt;b style=&quot;background-color: transparent; color: light-dark(rgb(0, 0, 0), rgb(255, 255, 255));&quot;&gt;&lt;font style=&quot;&quot;&gt;数据&lt;/font&gt;&lt;/b&gt;&lt;/font&gt;&lt;div&gt;&lt;font style=&quot;font-size: 8px;&quot;&gt;&lt;b style=&quot;background-color: transparent; color: light-dark(rgb(0, 0, 0), rgb(255, 255, 255));&quot;&gt;&lt;font style=&quot;&quot;&gt;&lt;br&gt;&lt;/font&gt;&lt;/b&gt;&lt;/font&gt;&lt;/div&gt;" style="rounded=0;whiteSpace=wrap;html=1;fillColor=none;strokeColor=#485E7F;strokeWidth=2;shadow=1;" vertex="1" parent="1">
          <mxGeometry x="22.25" y="55" width="73.5" height="26" as="geometry" />
        </mxCell>
        <mxCell id="3PjDj1WgWYQCvYvSHPeX-4" value="&lt;b&gt;&lt;font style=&quot;font-size: 8px;&quot;&gt;HPC 集群&lt;/font&gt;&lt;/b&gt;&lt;div&gt;&lt;b&gt;&lt;font style=&quot;font-size: 8px;&quot;&gt;&lt;br&gt;&lt;/font&gt;&lt;/b&gt;&lt;/div&gt;&lt;div&gt;&lt;b&gt;&lt;font style=&quot;font-size: 8px;&quot;&gt;&lt;br&gt;&lt;/font&gt;&lt;/b&gt;&lt;/div&gt;" style="rounded=0;whiteSpace=wrap;html=1;fillColor=none;fontColor=#333333;strokeColor=#666666;labelPosition=center;verticalLabelPosition=middle;align=center;verticalAlign=middle;strokeWidth=2;shadow=1;" vertex="1" parent="1">
          <mxGeometry x="22.25" y="91.38" width="73.5" height="47.5" as="geometry" />
        </mxCell>
        <mxCell id="3PjDj1WgWYQCvYvSHPeX-5" value="&lt;b&gt;&lt;font style=&quot;font-size: 8px;&quot;&gt;网络模型&lt;/font&gt;&lt;/b&gt;&lt;div&gt;&lt;b&gt;&lt;font style=&quot;font-size: 8px;&quot;&gt;&lt;br&gt;&lt;/font&gt;&lt;/b&gt;&lt;/div&gt;&lt;div&gt;&lt;b&gt;&lt;font style=&quot;font-size: 8px;&quot;&gt;&lt;br&gt;&lt;/font&gt;&lt;/b&gt;&lt;/div&gt;&lt;div&gt;&lt;br&gt;&lt;/div&gt;&lt;div&gt;&lt;b&gt;&lt;font style=&quot;font-size: 8px;&quot;&gt;&lt;br&gt;&lt;/font&gt;&lt;/b&gt;&lt;/div&gt;" style="rounded=0;whiteSpace=wrap;html=1;fillColor=none;strokeColor=#715100;strokeWidth=2;shadow=1;" vertex="1" parent="1">
          <mxGeometry x="22.25" y="150.755" width="73.5" height="71.25" as="geometry" />
        </mxCell>
        <mxCell id="3PjDj1WgWYQCvYvSHPeX-6" value="&lt;font style=&quot;font-size: 8px;&quot;&gt;&lt;b&gt;数据扩展模块&lt;/b&gt;&lt;/font&gt;&lt;div&gt;&lt;div&gt;&lt;br&gt;&lt;/div&gt;&lt;div&gt;&lt;br&gt;&lt;/div&gt;&lt;div&gt;&lt;font style=&quot;font-size: 8px;&quot;&gt;&lt;b&gt;&lt;br&gt;&lt;/b&gt;&lt;/font&gt;&lt;/div&gt;&lt;div&gt;&lt;font style=&quot;font-size: 8px;&quot;&gt;&lt;b&gt;&lt;br&gt;&lt;/b&gt;&lt;/font&gt;&lt;/div&gt;&lt;div&gt;&lt;font style=&quot;font-size: 8px;&quot;&gt;&lt;b&gt;&lt;br&gt;&lt;/b&gt;&lt;/font&gt;&lt;/div&gt;&lt;div&gt;&lt;font style=&quot;font-size: 8px;&quot;&gt;&lt;b&gt;&lt;br&gt;&lt;/b&gt;&lt;/font&gt;&lt;/div&gt;&lt;/div&gt;&lt;div&gt;&lt;font style=&quot;font-size: 8px;&quot;&gt;&lt;b&gt;&lt;br&gt;&lt;/b&gt;&lt;/font&gt;&lt;/div&gt;&lt;div&gt;&lt;font style=&quot;font-size: 8px;&quot;&gt;&lt;b&gt;&lt;br&gt;&lt;/b&gt;&lt;/font&gt;&lt;/div&gt;" style="rounded=0;whiteSpace=wrap;html=1;fillColor=none;strokeColor=#485E7F;strokeWidth=3;dashed=1;shadow=1;" vertex="1" parent="1">
          <mxGeometry x="144.75" y="5" width="110.25" height="136.88" as="geometry" />
        </mxCell>
        <mxCell id="3PjDj1WgWYQCvYvSHPeX-7" value="&lt;span style=&quot;font-size: 8px;&quot;&gt;&lt;b&gt;模型增强模块&lt;/b&gt;&lt;/span&gt;&lt;div&gt;&lt;span style=&quot;font-size: 8px;&quot;&gt;&lt;b&gt;&lt;br&gt;&lt;/b&gt;&lt;/span&gt;&lt;/div&gt;&lt;div&gt;&lt;span style=&quot;font-size: 8px;&quot;&gt;&lt;b&gt;&lt;br&gt;&lt;/b&gt;&lt;/span&gt;&lt;/div&gt;&lt;div&gt;&lt;span style=&quot;font-size: 8px;&quot;&gt;&lt;b&gt;&lt;br&gt;&lt;/b&gt;&lt;/span&gt;&lt;/div&gt;&lt;div&gt;&lt;span style=&quot;font-size: 8px;&quot;&gt;&lt;b&gt;&lt;br&gt;&lt;/b&gt;&lt;/span&gt;&lt;/div&gt;&lt;div&gt;&lt;span style=&quot;font-size: 8px;&quot;&gt;&lt;b&gt;&lt;br&gt;&lt;/b&gt;&lt;/span&gt;&lt;/div&gt;&lt;div&gt;&lt;span style=&quot;font-size: 8px;&quot;&gt;&lt;b&gt;&lt;br&gt;&lt;/b&gt;&lt;/span&gt;&lt;/div&gt;" style="rounded=0;whiteSpace=wrap;html=1;fillColor=none;strokeColor=#715100;strokeWidth=3;dashed=1;shadow=1;" vertex="1" parent="1">
          <mxGeometry x="144.75" y="170.51" width="110.25" height="102.01" as="geometry" />
        </mxCell>
        <mxCell id="3PjDj1WgWYQCvYvSHPeX-8" value="" style="sketch=0;pointerEvents=1;shadow=0;dashed=0;html=1;strokeColor=none;fillColor=#005F4B;labelPosition=center;verticalLabelPosition=bottom;verticalAlign=top;align=center;outlineConnect=0;shape=mxgraph.veeam2.server_cluster;" vertex="1" parent="1">
          <mxGeometry x="49.81250000000001" y="109.1925" width="18.375" height="5.9375" as="geometry" />
        </mxCell>
        <mxCell id="3PjDj1WgWYQCvYvSHPeX-9" value="" style="sketch=0;pointerEvents=1;shadow=0;dashed=0;html=1;strokeColor=none;fillColor=#005F4B;labelPosition=center;verticalLabelPosition=bottom;verticalAlign=top;align=center;outlineConnect=0;shape=mxgraph.veeam2.server_cluster;" vertex="1" parent="1">
          <mxGeometry x="49.81250000000001" y="117.505" width="18.375" height="5.9375" as="geometry" />
        </mxCell>
        <mxCell id="3PjDj1WgWYQCvYvSHPeX-10" value="" style="sketch=0;pointerEvents=1;shadow=0;dashed=0;html=1;strokeColor=none;fillColor=#005F4B;labelPosition=center;verticalLabelPosition=bottom;verticalAlign=top;align=center;outlineConnect=0;shape=mxgraph.veeam2.server_cluster;" vertex="1" parent="1">
          <mxGeometry x="49.81250000000001" y="125.8175" width="18.375" height="5.9375" as="geometry" />
        </mxCell>
        <mxCell id="3PjDj1WgWYQCvYvSHPeX-11" value="" style="sketch=0;pointerEvents=1;shadow=0;dashed=0;html=1;strokeColor=none;fillColor=#005F4B;labelPosition=center;verticalLabelPosition=bottom;verticalAlign=top;align=center;outlineConnect=0;shape=mxgraph.veeam2.server_cluster;" vertex="1" parent="1">
          <mxGeometry x="28.987500000000004" y="109.1925" width="18.375" height="5.9375" as="geometry" />
        </mxCell>
        <mxCell id="3PjDj1WgWYQCvYvSHPeX-12" value="" style="sketch=0;pointerEvents=1;shadow=0;dashed=0;html=1;strokeColor=none;fillColor=#005F4B;labelPosition=center;verticalLabelPosition=bottom;verticalAlign=top;align=center;outlineConnect=0;shape=mxgraph.veeam2.server_cluster;" vertex="1" parent="1">
          <mxGeometry x="28.987500000000004" y="117.505" width="18.375" height="5.9375" as="geometry" />
        </mxCell>
        <mxCell id="3PjDj1WgWYQCvYvSHPeX-13" value="" style="sketch=0;pointerEvents=1;shadow=0;dashed=0;html=1;strokeColor=none;fillColor=#005F4B;labelPosition=center;verticalLabelPosition=bottom;verticalAlign=top;align=center;outlineConnect=0;shape=mxgraph.veeam2.server_cluster;" vertex="1" parent="1">
          <mxGeometry x="28.987500000000004" y="125.8175" width="18.375" height="5.9375" as="geometry" />
        </mxCell>
        <mxCell id="3PjDj1WgWYQCvYvSHPeX-14" value="" style="sketch=0;pointerEvents=1;shadow=0;dashed=0;html=1;strokeColor=none;fillColor=#005F4B;labelPosition=center;verticalLabelPosition=bottom;verticalAlign=top;align=center;outlineConnect=0;shape=mxgraph.veeam2.server_cluster;" vertex="1" parent="1">
          <mxGeometry x="70.63750000000002" y="109.1925" width="18.375" height="5.9375" as="geometry" />
        </mxCell>
        <mxCell id="3PjDj1WgWYQCvYvSHPeX-15" value="" style="sketch=0;pointerEvents=1;shadow=0;dashed=0;html=1;strokeColor=none;fillColor=#005F4B;labelPosition=center;verticalLabelPosition=bottom;verticalAlign=top;align=center;outlineConnect=0;shape=mxgraph.veeam2.server_cluster;" vertex="1" parent="1">
          <mxGeometry x="70.63750000000002" y="117.505" width="18.375" height="5.9375" as="geometry" />
        </mxCell>
        <mxCell id="3PjDj1WgWYQCvYvSHPeX-16" value="" style="sketch=0;pointerEvents=1;shadow=0;dashed=0;html=1;strokeColor=none;fillColor=#005F4B;labelPosition=center;verticalLabelPosition=bottom;verticalAlign=top;align=center;outlineConnect=0;shape=mxgraph.veeam2.server_cluster;" vertex="1" parent="1">
          <mxGeometry x="70.63750000000002" y="125.8175" width="18.375" height="5.9375" as="geometry" />
        </mxCell>
        <mxCell id="3PjDj1WgWYQCvYvSHPeX-17" value="" style="rounded=0;whiteSpace=wrap;html=1;fillColor=#ffe6cc;strokeColor=#d79b00;shadow=1;" vertex="1" parent="1">
          <mxGeometry x="28.989999999999995" y="213.88" width="61.01" height="4" as="geometry" />
        </mxCell>
        <mxCell id="3PjDj1WgWYQCvYvSHPeX-18" value="" style="rounded=0;whiteSpace=wrap;html=1;fillColor=#ffe6cc;strokeColor=#d79b00;shadow=1;" vertex="1" parent="1">
          <mxGeometry x="28.989999999999995" y="166.51" width="61.01" height="4" as="geometry" />
        </mxCell>
        <mxCell id="3PjDj1WgWYQCvYvSHPeX-19" value="" style="rounded=0;whiteSpace=wrap;html=1;fillColor=#ffe6cc;strokeColor=#d79b00;shadow=1;" vertex="1" parent="1">
          <mxGeometry x="39" y="174.5" width="40" height="4" as="geometry" />
        </mxCell>
        <mxCell id="3PjDj1WgWYQCvYvSHPeX-20" value="" style="rounded=0;whiteSpace=wrap;html=1;fillColor=#ffe6cc;strokeColor=#d79b00;shadow=1;" vertex="1" parent="1">
          <mxGeometry x="39" y="205.88" width="40" height="4" as="geometry" />
        </mxCell>
        <mxCell id="3PjDj1WgWYQCvYvSHPeX-21" value="" style="rounded=0;whiteSpace=wrap;html=1;fillColor=#ffe6cc;strokeColor=#d79b00;shadow=1;" vertex="1" parent="1">
          <mxGeometry x="43.75" y="182.38" width="30.51" height="4" as="geometry" />
        </mxCell>
        <mxCell id="3PjDj1WgWYQCvYvSHPeX-22" value="" style="rounded=0;whiteSpace=wrap;html=1;fillColor=#ffe6cc;strokeColor=#d79b00;shadow=1;" vertex="1" parent="1">
          <mxGeometry x="43.75" y="198.25" width="30.51" height="4" as="geometry" />
        </mxCell>
        <mxCell id="3PjDj1WgWYQCvYvSHPeX-23" value="" style="rounded=0;whiteSpace=wrap;html=1;fillColor=#ffe6cc;strokeColor=#d79b00;shadow=1;" vertex="1" parent="1">
          <mxGeometry x="51.870000000000005" y="190.38" width="14.26" height="4" as="geometry" />
        </mxCell>
        <mxCell id="3PjDj1WgWYQCvYvSHPeX-24" value="&lt;span style=&quot;font-size: 7px;&quot;&gt;&lt;b&gt;模拟真实数据&lt;/b&gt;&lt;/span&gt;" style="rounded=0;whiteSpace=wrap;html=1;fillColor=none;strokeColor=#485E7F;strokeWidth=2;shadow=1;" vertex="1" parent="1">
          <mxGeometry x="162.38" y="28.439999999999998" width="75" height="20" as="geometry" />
        </mxCell>
        <mxCell id="3PjDj1WgWYQCvYvSHPeX-25" value="&lt;div&gt;&lt;div&gt;&lt;font style=&quot;font-size: 7px;&quot;&gt;&lt;b style=&quot;&quot;&gt;生成对抗网络&lt;/b&gt;&lt;/font&gt;&lt;/div&gt;&lt;/div&gt;&lt;div&gt;&lt;font style=&quot;font-size: 7px;&quot;&gt;&lt;b style=&quot;&quot;&gt;&lt;br&gt;&lt;/b&gt;&lt;/font&gt;&lt;/div&gt;" style="rounded=0;whiteSpace=wrap;html=1;fillColor=none;strokeColor=#485E7F;strokeWidth=2;glass=0;shadow=1;" vertex="1" parent="1">
          <mxGeometry x="162.38" y="56.629999999999995" width="75" height="32.5" as="geometry" />
        </mxCell>
        <mxCell id="3PjDj1WgWYQCvYvSHPeX-26" value="&lt;div&gt;&lt;div&gt;&lt;font style=&quot;font-size: 7px;&quot;&gt;&lt;b style=&quot;&quot;&gt;数据转换&lt;/b&gt;&lt;/font&gt;&lt;/div&gt;&lt;/div&gt;&lt;div&gt;&lt;font style=&quot;font-size: 7px;&quot;&gt;&lt;b style=&quot;&quot;&gt;&lt;br&gt;&lt;/b&gt;&lt;/font&gt;&lt;/div&gt;" style="rounded=0;whiteSpace=wrap;html=1;fillColor=none;strokeColor=#485E7F;strokeWidth=2;shadow=1;" vertex="1" parent="1">
          <mxGeometry x="162.38" y="98.44" width="75" height="32" as="geometry" />
        </mxCell>
        <mxCell id="3PjDj1WgWYQCvYvSHPeX-27" value="" style="shape=doubleArrow;direction=south;whiteSpace=wrap;html=1;fillColor=none;strokeColor=#3E334C;fillStyle=auto;" vertex="1" parent="1">
          <mxGeometry x="54" y="134.88" width="10" height="20" as="geometry" />
        </mxCell>
        <mxCell id="3PjDj1WgWYQCvYvSHPeX-28" value="&lt;font style=&quot;font-size: 5px;&quot;&gt;&lt;b&gt;加载/存储&lt;/b&gt;&lt;/font&gt;" style="text;html=1;align=center;verticalAlign=middle;whiteSpace=wrap;rounded=0;fontColor=#3E334C;" vertex="1" parent="1">
          <mxGeometry x="59" y="82.51" width="31" as="geometry" />
        </mxCell>
        <mxCell id="3PjDj1WgWYQCvYvSHPeX-29" value="&lt;font style=&quot;font-size: 5px;&quot;&gt;&lt;b&gt;训练/推理&lt;/b&gt;&lt;/font&gt;" style="text;html=1;align=center;verticalAlign=middle;whiteSpace=wrap;rounded=0;fontColor=#3E334C;" vertex="1" parent="1">
          <mxGeometry x="59" y="141.88" width="31" as="geometry" />
        </mxCell>
        <mxCell id="3PjDj1WgWYQCvYvSHPeX-30" value="" style="endArrow=classic;startArrow=classic;html=1;rounded=0;fontColor=#6A7B93;labelBackgroundColor=none;strokeColor=#404A58;" edge="1" parent="1">
          <mxGeometry width="50" height="50" relative="1" as="geometry">
            <mxPoint x="16" y="79.50999999999999" as="sourcePoint" />
            <mxPoint x="16" y="54.879999999999995" as="targetPoint" />
          </mxGeometry>
        </mxCell>
        <mxCell id="3PjDj1WgWYQCvYvSHPeX-31" value="" style="endArrow=classic;startArrow=classic;html=1;rounded=0;fontColor=#6A7B93;labelBackgroundColor=none;strokeColor=#404A58;" edge="1" parent="1">
          <mxGeometry width="50" height="50" relative="1" as="geometry">
            <mxPoint x="26.490000000000002" y="49.879999999999995" as="sourcePoint" />
            <mxPoint x="92.49" y="49.88" as="targetPoint" />
          </mxGeometry>
        </mxCell>
        <mxCell id="3PjDj1WgWYQCvYvSHPeX-32" value="&lt;b&gt;&lt;font style=&quot;font-size: 7px; color: rgb(64, 74, 88);&quot;&gt;规模扩展&lt;/font&gt;&lt;/b&gt;" style="edgeLabel;html=1;align=center;verticalAlign=middle;resizable=0;points=[];labelBackgroundColor=none;" vertex="1" connectable="0" parent="3PjDj1WgWYQCvYvSHPeX-31">
          <mxGeometry x="-0.162" y="1" relative="1" as="geometry">
            <mxPoint x="5" y="-7" as="offset" />
          </mxGeometry>
        </mxCell>
        <mxCell id="3PjDj1WgWYQCvYvSHPeX-33" value="" style="endArrow=classic;startArrow=classic;html=1;rounded=0;fontColor=#6A7B93;labelBackgroundColor=none;strokeColor=#7F5251;" edge="1" parent="1">
          <mxGeometry width="50" height="50" relative="1" as="geometry">
            <mxPoint x="16" y="223.88" as="sourcePoint" />
            <mxPoint x="16" y="150.76" as="targetPoint" />
          </mxGeometry>
        </mxCell>
        <mxCell id="3PjDj1WgWYQCvYvSHPeX-34" value="" style="endArrow=classic;startArrow=classic;html=1;rounded=0;fontColor=#7F5251;labelBackgroundColor=none;strokeColor=#7F5251;" edge="1" parent="1">
          <mxGeometry width="50" height="50" relative="1" as="geometry">
            <mxPoint x="26.009999999999998" y="227.88" as="sourcePoint" />
            <mxPoint x="92.01" y="227.88" as="targetPoint" />
          </mxGeometry>
        </mxCell>
        <mxCell id="3PjDj1WgWYQCvYvSHPeX-35" value="&lt;b&gt;&lt;font style=&quot;font-size: 7px;&quot;&gt;规模扩展&lt;/font&gt;&lt;/b&gt;" style="edgeLabel;html=1;align=center;verticalAlign=middle;resizable=0;points=[];labelBackgroundColor=none;fontColor=#7F5251;" vertex="1" connectable="0" parent="3PjDj1WgWYQCvYvSHPeX-34">
          <mxGeometry x="-0.162" y="1" relative="1" as="geometry">
            <mxPoint x="5" y="7" as="offset" />
          </mxGeometry>
        </mxCell>
        <mxCell id="3PjDj1WgWYQCvYvSHPeX-36" value="&lt;div&gt;&lt;font style=&quot;font-size: 7px;&quot;&gt;&lt;b style=&quot;&quot;&gt;模型规模调整&lt;/b&gt;&lt;/font&gt;&lt;/div&gt;&lt;div&gt;&lt;br&gt;&lt;/div&gt;" style="rounded=0;whiteSpace=wrap;html=1;fillColor=none;strokeColor=#715100;strokeWidth=2;shadow=1;" vertex="1" parent="1">
          <mxGeometry x="162.37" y="190.38" width="75" height="32" as="geometry" />
        </mxCell>
        <mxCell id="3PjDj1WgWYQCvYvSHPeX-37" value="" style="endArrow=none;dashed=1;html=1;rounded=0;entryX=0;entryY=0;entryDx=0;entryDy=0;strokeColor=#90C0FF;strokeWidth=2;" edge="1" parent="1" target="3PjDj1WgWYQCvYvSHPeX-6">
          <mxGeometry width="50" height="50" relative="1" as="geometry">
            <mxPoint x="95.75" y="55.75999999999999" as="sourcePoint" />
            <mxPoint x="150" y="-18.119999999999997" as="targetPoint" />
          </mxGeometry>
        </mxCell>
        <mxCell id="3PjDj1WgWYQCvYvSHPeX-38" value="" style="endArrow=none;dashed=1;html=1;rounded=0;entryX=0;entryY=1;entryDx=0;entryDy=0;strokeColor=#8FBCFF;strokeWidth=2;exitX=1;exitY=1;exitDx=0;exitDy=0;" edge="1" parent="1" source="3PjDj1WgWYQCvYvSHPeX-3" target="3PjDj1WgWYQCvYvSHPeX-6">
          <mxGeometry width="50" height="50" relative="1" as="geometry">
            <mxPoint x="105.75" y="65.75999999999999" as="sourcePoint" />
            <mxPoint x="155" y="-8.119999999999997" as="targetPoint" />
          </mxGeometry>
        </mxCell>
        <mxCell id="3PjDj1WgWYQCvYvSHPeX-39" value="" style="endArrow=none;dashed=1;html=1;rounded=0;entryX=0;entryY=0;entryDx=0;entryDy=0;strokeColor=#FFB800;strokeWidth=2;exitX=1;exitY=0;exitDx=0;exitDy=0;" edge="1" parent="1" source="3PjDj1WgWYQCvYvSHPeX-5" target="3PjDj1WgWYQCvYvSHPeX-7">
          <mxGeometry width="50" height="50" relative="1" as="geometry">
            <mxPoint x="105.75" y="65.75999999999999" as="sourcePoint" />
            <mxPoint x="155" y="-8.119999999999997" as="targetPoint" />
          </mxGeometry>
        </mxCell>
        <mxCell id="3PjDj1WgWYQCvYvSHPeX-40" value="" style="endArrow=none;dashed=1;html=1;rounded=0;entryX=0;entryY=1;entryDx=0;entryDy=0;strokeColor=#FFB800;strokeWidth=2;exitX=1;exitY=0;exitDx=0;exitDy=0;" edge="1" parent="1" target="3PjDj1WgWYQCvYvSHPeX-7">
          <mxGeometry width="50" height="50" relative="1" as="geometry">
            <mxPoint x="95.75" y="222" as="sourcePoint" />
            <mxPoint x="144.75" y="246" as="targetPoint" />
          </mxGeometry>
        </mxCell>
        <mxCell id="3PjDj1WgWYQCvYvSHPeX-41" value="" style="shape=doubleArrow;direction=south;whiteSpace=wrap;html=1;fillColor=none;strokeColor=default;fillStyle=auto;" vertex="1" parent="1">
          <mxGeometry x="54.01" y="76" width="10" height="20" as="geometry" />
        </mxCell>
        <mxCell id="3PjDj1WgWYQCvYvSHPeX-42" value="&lt;div&gt;&lt;b style=&quot;font-size: 7px; background-color: transparent; color: light-dark(rgb(0, 0, 0), rgb(255, 255, 255));&quot;&gt;神经网络架构搜索&lt;/b&gt;&lt;/div&gt;&lt;div&gt;&lt;b style=&quot;font-size: 7px; background-color: transparent; color: light-dark(rgb(0, 0, 0), rgb(255, 255, 255));&quot;&gt;&lt;br&gt;&lt;/b&gt;&lt;/div&gt;" style="rounded=0;whiteSpace=wrap;html=1;fillColor=none;strokeColor=#715100;strokeWidth=2;shadow=1;" vertex="1" parent="1">
          <mxGeometry x="162.38" y="232" width="75" height="32" as="geometry" />
        </mxCell>
        <mxCell id="3PjDj1WgWYQCvYvSHPeX-43" value="" style="outlineConnect=0;dashed=0;verticalLabelPosition=bottom;verticalAlign=top;align=center;html=1;shape=mxgraph.aws3.elastic_load_balancing;fillColor=#F58536;gradientColor=none;" vertex="1" parent="1">
          <mxGeometry x="175" y="73.33" width="10" height="9.62" as="geometry" />
        </mxCell>
        <mxCell id="3PjDj1WgWYQCvYvSHPeX-44" value="" style="outlineConnect=0;dashed=0;verticalLabelPosition=bottom;verticalAlign=top;align=center;html=1;shape=mxgraph.aws3.elastic_load_balancing;fillColor=#F58536;gradientColor=none;rotation=-180;" vertex="1" parent="1">
          <mxGeometry x="214" y="73.33" width="10" height="9.62" as="geometry" />
        </mxCell>
        <mxCell id="3PjDj1WgWYQCvYvSHPeX-45" value="" style="sketch=0;html=1;aspect=fixed;strokeColor=none;shadow=0;fillColor=#3B8DF1;verticalAlign=top;labelPosition=center;verticalLabelPosition=bottom;shape=mxgraph.gcp2.arrow_cycle" vertex="1" parent="1">
          <mxGeometry x="190.97" y="71.64" width="15.79" height="15" as="geometry" />
        </mxCell>
        <mxCell id="3PjDj1WgWYQCvYvSHPeX-46" value="" style="sketch=0;outlineConnect=0;fontColor=#232F3E;gradientColor=none;fillColor=#01A88D;strokeColor=none;dashed=0;verticalLabelPosition=bottom;verticalAlign=top;align=center;html=1;fontSize=12;fontStyle=0;aspect=fixed;shape=mxgraph.aws4.application_discovery_service_aws_discovery_agent;" vertex="1" parent="1">
          <mxGeometry x="191.82999999999998" y="114.41" width="16.1" height="13" as="geometry" />
        </mxCell>
        <mxCell id="3PjDj1WgWYQCvYvSHPeX-47" value="" style="sketch=0;points=[[0,0,0],[0.25,0,0],[0.5,0,0],[0.75,0,0],[1,0,0],[0,1,0],[0.25,1,0],[0.5,1,0],[0.75,1,0],[1,1,0],[0,0.25,0],[0,0.5,0],[0,0.75,0],[1,0.25,0],[1,0.5,0],[1,0.75,0]];outlineConnect=0;fontColor=#232F3E;fillColor=none;strokeColor=#01A88D;dashed=0;verticalLabelPosition=bottom;verticalAlign=top;align=center;html=1;fontSize=12;fontStyle=0;aspect=fixed;shape=mxgraph.aws4.resourceIcon;resIcon=mxgraph.aws4.elastic_inference_2;strokeWidth=1;" vertex="1" parent="1">
          <mxGeometry x="189.88" y="246" width="18" height="18" as="geometry" />
        </mxCell>
        <mxCell id="3PjDj1WgWYQCvYvSHPeX-48" value="" style="sketch=0;html=1;aspect=fixed;strokeColor=none;shadow=0;fillColor=#3B8DF1;verticalAlign=top;labelPosition=center;verticalLabelPosition=bottom;shape=mxgraph.gcp2.check_scale" vertex="1" parent="1">
          <mxGeometry x="189.88" y="205.88" width="20" height="15" as="geometry" />
        </mxCell>
      </root>
    </mxGraphModel>
  </diagram>
  <diagram id="XO-AubR5Th3pSl7_yR6k" name="Page-3">
    <mxGraphModel dx="3349" dy="1218" grid="1" gridSize="10" guides="1" tooltips="1" connect="1" arrows="1" fold="1" page="1" pageScale="1" pageWidth="570" pageHeight="600" math="0" shadow="0">
      <root>
        <mxCell id="0" />
        <mxCell id="1" parent="0" />
        <mxCell id="J8bmJUvrc4zDFoC2kqw7-1" value="" style="container=1;collapsible=0;expand=0;recursiveResize=0;html=1;whiteSpace=wrap;strokeColor=#198038;fillColor=none;strokeWidth=3;shadow=1;labelPosition=center;verticalLabelPosition=top;align=center;verticalAlign=bottom;fontFamily=Helvetica;" parent="1" vertex="1">
          <mxGeometry x="-1095" y="15" width="480" height="570" as="geometry" />
        </mxCell>
        <mxCell id="J8bmJUvrc4zDFoC2kqw7-2" value="基于 Transformer 架构的 HPC-AI 系统性能评估框架" style="shape=rect;fillColor=#198038;aspect=fixed;resizable=0;labelPosition=right;verticalLabelPosition=middle;align=left;verticalAlign=middle;strokeColor=none;part=1;spacingLeft=5;fontSize=17;fontStyle=1;fontColor=#0A5252;fontFamily=Helvetica;" parent="J8bmJUvrc4zDFoC2kqw7-1" vertex="1">
          <mxGeometry width="48" height="48" relative="1" as="geometry" />
        </mxCell>
        <mxCell id="J8bmJUvrc4zDFoC2kqw7-3" value="" style="fillColor=#ffffff;shape=mxgraph.ibm_cloud.ibm-cloud--bare-metal-servers-vpc;strokeColor=none;dashed=0;outlineConnect=0;html=1;labelPosition=center;verticalLabelPosition=bottom;verticalAlign=top;part=1;movable=0;resizable=0;rotatable=0;fontFamily=Helvetica;" parent="J8bmJUvrc4zDFoC2kqw7-2" vertex="1">
          <mxGeometry width="24" height="24" relative="1" as="geometry">
            <mxPoint x="12" y="12" as="offset" />
          </mxGeometry>
        </mxCell>
        <mxCell id="J8bmJUvrc4zDFoC2kqw7-4" value="" style="container=1;collapsible=0;expand=0;recursiveResize=0;html=1;whiteSpace=wrap;strokeColor=#00003C;fillColor=none;shadow=1;strokeWidth=2;fontFamily=Helvetica;" parent="J8bmJUvrc4zDFoC2kqw7-1" vertex="1">
          <mxGeometry x="10" y="60" width="460" height="140" as="geometry" />
        </mxCell>
        <mxCell id="J8bmJUvrc4zDFoC2kqw7-5" value="数据扩展" style="shape=rect;fillColor=#00003C;aspect=fixed;resizable=0;labelPosition=right;verticalLabelPosition=middle;align=left;verticalAlign=middle;strokeColor=none;part=1;spacingLeft=5;fontSize=18;fontStyle=1;fontColor=#00003C;fontFamily=Helvetica;" parent="J8bmJUvrc4zDFoC2kqw7-4" vertex="1">
          <mxGeometry width="48" height="48" relative="1" as="geometry" />
        </mxCell>
        <mxCell id="J8bmJUvrc4zDFoC2kqw7-6" value="" style="fillColor=#ffffff;shape=mxgraph.ibm_cloud.ibm-cloud--bare-metal-server;strokeColor=none;dashed=0;outlineConnect=0;html=1;labelPosition=center;verticalLabelPosition=bottom;verticalAlign=top;part=1;movable=0;resizable=0;rotatable=0;fontFamily=Helvetica;" parent="J8bmJUvrc4zDFoC2kqw7-5" vertex="1">
          <mxGeometry width="24" height="24" relative="1" as="geometry">
            <mxPoint x="12" y="12" as="offset" />
          </mxGeometry>
        </mxCell>
        <mxCell id="J8bmJUvrc4zDFoC2kqw7-7" value="&lt;font style=&quot;color: rgb(0, 0, 60);&quot;&gt;推理/训练数据&lt;/font&gt;" style="verticalLabelPosition=top;aspect=fixed;html=1;shape=mxgraph.salesforce.data2;dropTarget=1;labelPosition=center;align=center;verticalAlign=bottom;fontStyle=1;fontSize=15;fontFamily=Helvetica;" parent="J8bmJUvrc4zDFoC2kqw7-4" vertex="1">
          <mxGeometry x="60" y="70" width="60" height="60" as="geometry" />
        </mxCell>
        <mxCell id="J8bmJUvrc4zDFoC2kqw7-8" value="&lt;font style=&quot;color: rgb(0, 0, 60);&quot;&gt;磁盘存储数据&lt;/font&gt;" style="aspect=fixed;perimeter=ellipsePerimeter;html=1;align=center;shadow=0;dashed=0;image;image=img/lib/ibm/data/enterprise_user_directory.svg;labelBackgroundColor=none;strokeColor=#666666;strokeWidth=3;fillColor=#C2952D;gradientColor=none;fontSize=15;fontColor=#4277BB;fontStyle=1;labelPosition=center;verticalLabelPosition=top;verticalAlign=bottom;fontFamily=Helvetica;" parent="J8bmJUvrc4zDFoC2kqw7-4" vertex="1">
          <mxGeometry x="340" y="70" width="60" height="60" as="geometry" />
        </mxCell>
        <mxCell id="J8bmJUvrc4zDFoC2kqw7-9" value="&lt;font style=&quot;color: rgb(0, 0, 60);&quot;&gt;Queries 调用库&lt;/font&gt;" style="aspect=fixed;perimeter=ellipsePerimeter;html=1;align=center;shadow=0;dashed=0;image;image=img/lib/ibm/infrastructure/transformation_connectivity.svg;labelBackgroundColor=none;strokeColor=#666666;strokeWidth=3;fillColor=#C2952D;gradientColor=none;fontSize=15;fontColor=#4277BB;spacingTop=3;fontStyle=1;labelPosition=center;verticalLabelPosition=top;verticalAlign=bottom;fontFamily=Helvetica;" parent="J8bmJUvrc4zDFoC2kqw7-4" vertex="1">
          <mxGeometry x="200" y="70" width="60" height="60" as="geometry" />
        </mxCell>
        <mxCell id="J8bmJUvrc4zDFoC2kqw7-10" value="" style="endArrow=open;html=1;rounded=0;startArrow=open;startFill=0;endFill=0;strokeWidth=2;entryX=0;entryY=0.5;entryDx=0;entryDy=0;strokeColor=#00003C;curved=0;opacity=50;shadow=0;flowAnimation=0;labelBackgroundColor=none;fontFamily=Helvetica;" parent="J8bmJUvrc4zDFoC2kqw7-4" source="J8bmJUvrc4zDFoC2kqw7-7" target="J8bmJUvrc4zDFoC2kqw7-9" edge="1">
          <mxGeometry width="50" height="50" relative="1" as="geometry">
            <mxPoint x="130" y="120" as="sourcePoint" />
            <mxPoint x="180" y="70" as="targetPoint" />
          </mxGeometry>
        </mxCell>
        <mxCell id="J8bmJUvrc4zDFoC2kqw7-11" value="" style="endArrow=open;html=1;rounded=0;startArrow=open;startFill=0;endFill=0;strokeWidth=2;entryX=0;entryY=0.5;entryDx=0;entryDy=0;strokeColor=#00003C;curved=0;opacity=50;shadow=0;flowAnimation=0;labelBackgroundColor=none;fontFamily=Helvetica;" parent="J8bmJUvrc4zDFoC2kqw7-4" edge="1">
          <mxGeometry width="50" height="50" relative="1" as="geometry">
            <mxPoint x="260" y="99.63999999999999" as="sourcePoint" />
            <mxPoint x="340" y="99.63999999999999" as="targetPoint" />
          </mxGeometry>
        </mxCell>
        <mxCell id="J8bmJUvrc4zDFoC2kqw7-12" value="" style="endArrow=open;html=1;rounded=0;startArrow=open;startFill=0;endFill=0;strokeWidth=3;entryX=0;entryY=0.5;entryDx=0;entryDy=0;strokeColor=#0A5252;shadow=0;flowAnimation=0;edgeStyle=orthogonalEdgeStyle;exitX=0;exitY=0.5;exitDx=0;exitDy=0;labelBackgroundColor=none;fontFamily=Helvetica;" parent="J8bmJUvrc4zDFoC2kqw7-4" source="J8bmJUvrc4zDFoC2kqw7-16" edge="1">
          <mxGeometry width="50" height="50" relative="1" as="geometry">
            <mxPoint x="-60" y="100" as="sourcePoint" />
            <mxPoint x="60" y="99.57999999999998" as="targetPoint" />
            <Array as="points">
              <mxPoint x="-30" y="260" />
              <mxPoint x="-30" y="100" />
            </Array>
          </mxGeometry>
        </mxCell>
        <mxCell id="J8bmJUvrc4zDFoC2kqw7-13" value="" style="container=1;collapsible=0;expand=0;recursiveResize=0;html=1;whiteSpace=wrap;strokeColor=#430085;fillColor=none;shadow=1;strokeWidth=2;fontFamily=Helvetica;" parent="J8bmJUvrc4zDFoC2kqw7-1" vertex="1">
          <mxGeometry x="10" y="210" width="460" height="180" as="geometry" />
        </mxCell>
        <mxCell id="J8bmJUvrc4zDFoC2kqw7-14" value="模型抽象" style="shape=rect;fillColor=#430085;aspect=fixed;resizable=0;labelPosition=right;verticalLabelPosition=middle;align=left;verticalAlign=middle;strokeColor=none;part=1;spacingLeft=5;fontSize=18;fontStyle=1;fontColor=#430085;fontFamily=Helvetica;" parent="J8bmJUvrc4zDFoC2kqw7-13" vertex="1">
          <mxGeometry width="48" height="48" relative="1" as="geometry" />
        </mxCell>
        <mxCell id="J8bmJUvrc4zDFoC2kqw7-15" value="" style="fillColor=#ffffff;shape=mxgraph.ibm_cloud.ibm-cloud--bare-metal-server;strokeColor=none;dashed=0;outlineConnect=0;html=1;labelPosition=center;verticalLabelPosition=bottom;verticalAlign=top;part=1;movable=0;resizable=0;rotatable=0;fontFamily=Helvetica;" parent="J8bmJUvrc4zDFoC2kqw7-14" vertex="1">
          <mxGeometry width="24" height="24" relative="1" as="geometry">
            <mxPoint x="12" y="12" as="offset" />
          </mxGeometry>
        </mxCell>
        <mxCell id="J8bmJUvrc4zDFoC2kqw7-16" value="&lt;span&gt;&lt;font style=&quot;color: rgb(68, 0, 137);&quot;&gt;LLM 模型&lt;/font&gt;&lt;/span&gt;" style="image;aspect=fixed;perimeter=ellipsePerimeter;html=1;align=center;shadow=0;dashed=0;fontColor=#4277BB;labelBackgroundColor=none;fontSize=15;spacingTop=3;image=img/lib/ibm/data/model.svg;fontStyle=1;labelPosition=center;verticalLabelPosition=top;verticalAlign=bottom;imageBackground=default;imageBorder=none;fontFamily=Helvetica;" parent="J8bmJUvrc4zDFoC2kqw7-13" vertex="1">
          <mxGeometry x="60" y="80" width="60" height="60" as="geometry" />
        </mxCell>
        <mxCell id="J8bmJUvrc4zDFoC2kqw7-17" value="&lt;font style=&quot;color: rgb(68, 0, 137);&quot;&gt;并发控制实例&lt;/font&gt;" style="aspect=fixed;perimeter=ellipsePerimeter;html=1;align=center;shadow=0;dashed=0;image;image=img/lib/ibm/infrastructure/transformation_connectivity.svg;labelBackgroundColor=none;strokeColor=#666666;strokeWidth=3;fillColor=#C2952D;gradientColor=none;fontSize=15;fontColor=#4277BB;spacingTop=0;fontStyle=1;spacing=0;labelPosition=center;verticalLabelPosition=top;verticalAlign=bottom;fontFamily=Helvetica;" parent="J8bmJUvrc4zDFoC2kqw7-13" vertex="1">
          <mxGeometry x="340" y="80" width="60" height="60" as="geometry" />
        </mxCell>
        <mxCell id="J8bmJUvrc4zDFoC2kqw7-18" value="&lt;font color=&quot;#440089&quot;&gt;🤗 开源 LLM&lt;/font&gt;&lt;div&gt;&lt;font color=&quot;#440089&quot;&gt;LlaMA-2&lt;/font&gt;&lt;/div&gt;&lt;div&gt;&lt;font color=&quot;#440089&quot;&gt;LlaMA-3&lt;/font&gt;&lt;/div&gt;&lt;div&gt;&lt;font color=&quot;#440089&quot;&gt;Baicuan-2&lt;/font&gt;&lt;/div&gt;&lt;div&gt;&lt;font color=&quot;#440089&quot;&gt;GLM-4&lt;/font&gt;&lt;/div&gt;&lt;div&gt;&lt;font color=&quot;#440089&quot;&gt;Qwen-2.5&lt;/font&gt;&lt;/div&gt;&lt;div&gt;&lt;font color=&quot;#440089&quot;&gt;Vicuna&lt;/font&gt;&lt;/div&gt;&lt;div&gt;&lt;font color=&quot;#440089&quot;&gt;DeepSeek&lt;/font&gt;&lt;/div&gt;&lt;div&gt;&lt;font color=&quot;#440089&quot;&gt;...&lt;/font&gt;&lt;/div&gt;" style="strokeWidth=4;html=1;shape=mxgraph.flowchart.annotation_2;align=center;labelPosition=right;pointerEvents=1;strokeColor=light-dark(#430085,#EDEDED);verticalLabelPosition=middle;verticalAlign=middle;spacingRight=0;spacingLeft=50;fontStyle=1;fillColor=none;shadow=1;opacity=50;spacing=0;fontFamily=Helvetica;" parent="J8bmJUvrc4zDFoC2kqw7-13" vertex="1">
          <mxGeometry x="120" y="50" width="20" height="116.25" as="geometry" />
        </mxCell>
        <mxCell id="J8bmJUvrc4zDFoC2kqw7-19" style="edgeStyle=orthogonalEdgeStyle;rounded=0;html=1;labelBackgroundColor=none;startArrow=open;startFill=0;endArrow=open;endFill=0;jettySize=auto;orthogonalLoop=1;strokeColor=#430085;strokeWidth=3;fontSize=18;fontColor=#4277BB;fontStyle=1;opacity=50;fontFamily=Helvetica;" parent="J8bmJUvrc4zDFoC2kqw7-13" edge="1">
          <mxGeometry relative="1" as="geometry">
            <Array as="points" />
            <mxPoint x="220" y="43.129999999999995" as="targetPoint" />
            <mxPoint x="220" y="173.13" as="sourcePoint" />
          </mxGeometry>
        </mxCell>
        <mxCell id="J8bmJUvrc4zDFoC2kqw7-20" value="&lt;font color=&quot;#440089&quot; style=&quot;background-color: light-dark(#ffffff, var(--ge-dark-color, #121212));&quot;&gt;扩展&lt;/font&gt;" style="edgeLabel;html=1;align=center;verticalAlign=middle;resizable=0;points=[];fontSize=12;fontStyle=1;labelBackgroundColor=none;fontFamily=Helvetica;" parent="J8bmJUvrc4zDFoC2kqw7-19" vertex="1" connectable="0">
          <mxGeometry x="-0.049" y="1" relative="1" as="geometry">
            <mxPoint as="offset" />
          </mxGeometry>
        </mxCell>
        <mxCell id="J8bmJUvrc4zDFoC2kqw7-21" style="edgeStyle=orthogonalEdgeStyle;rounded=0;html=1;labelBackgroundColor=default;startArrow=open;startFill=0;endArrow=open;endFill=0;jettySize=auto;orthogonalLoop=1;strokeColor=#430085;strokeWidth=3;fontSize=18;fontColor=#4277BB;fontStyle=1;opacity=50;fontFamily=Helvetica;" parent="J8bmJUvrc4zDFoC2kqw7-13" edge="1">
          <mxGeometry relative="1" as="geometry">
            <Array as="points" />
            <mxPoint x="240" y="70" as="targetPoint" />
            <mxPoint x="320" y="70" as="sourcePoint" />
          </mxGeometry>
        </mxCell>
        <mxCell id="J8bmJUvrc4zDFoC2kqw7-22" style="edgeStyle=orthogonalEdgeStyle;rounded=0;html=1;labelBackgroundColor=default;startArrow=open;startFill=0;endArrow=open;endFill=0;jettySize=auto;orthogonalLoop=1;strokeColor=#430085;strokeWidth=3;fontSize=18;fontColor=#4277BB;fontStyle=1;opacity=50;fontFamily=Helvetica;" parent="J8bmJUvrc4zDFoC2kqw7-13" edge="1">
          <mxGeometry relative="1" as="geometry">
            <Array as="points" />
            <mxPoint x="240" y="89.88" as="targetPoint" />
            <mxPoint x="320" y="89.88" as="sourcePoint" />
          </mxGeometry>
        </mxCell>
        <mxCell id="J8bmJUvrc4zDFoC2kqw7-23" value="" style="edgeStyle=orthogonalEdgeStyle;rounded=0;html=1;labelBackgroundColor=default;startArrow=open;startFill=0;endArrow=open;endFill=0;jettySize=auto;orthogonalLoop=1;strokeColor=#430085;strokeWidth=3;fontSize=18;fontColor=#4277BB;fontStyle=1;opacity=50;fontFamily=Helvetica;" parent="J8bmJUvrc4zDFoC2kqw7-13" edge="1">
          <mxGeometry relative="1" as="geometry">
            <Array as="points" />
            <mxPoint x="240" y="109.88" as="targetPoint" />
            <mxPoint x="320" y="109.88" as="sourcePoint" />
            <mxPoint as="offset" />
          </mxGeometry>
        </mxCell>
        <mxCell id="J8bmJUvrc4zDFoC2kqw7-24" style="edgeStyle=orthogonalEdgeStyle;rounded=0;html=1;labelBackgroundColor=default;startArrow=open;startFill=0;endArrow=open;endFill=0;jettySize=auto;orthogonalLoop=1;strokeColor=#430085;strokeWidth=3;fontSize=18;fontColor=#4277BB;fontStyle=1;opacity=50;fontFamily=Helvetica;" parent="J8bmJUvrc4zDFoC2kqw7-13" edge="1">
          <mxGeometry relative="1" as="geometry">
            <Array as="points" />
            <mxPoint x="240" y="130" as="targetPoint" />
            <mxPoint x="320" y="130" as="sourcePoint" />
          </mxGeometry>
        </mxCell>
        <mxCell id="J8bmJUvrc4zDFoC2kqw7-25" style="edgeStyle=orthogonalEdgeStyle;rounded=0;html=1;labelBackgroundColor=default;startArrow=open;startFill=0;endArrow=open;endFill=0;jettySize=auto;orthogonalLoop=1;strokeColor=#430085;strokeWidth=3;fontSize=18;fontColor=#4277BB;fontStyle=1;opacity=50;fontFamily=Helvetica;" parent="J8bmJUvrc4zDFoC2kqw7-13" edge="1">
          <mxGeometry relative="1" as="geometry">
            <Array as="points" />
            <mxPoint x="240" y="150" as="targetPoint" />
            <mxPoint x="320" y="150" as="sourcePoint" />
          </mxGeometry>
        </mxCell>
        <mxCell id="J8bmJUvrc4zDFoC2kqw7-26" value="" style="container=1;collapsible=0;expand=0;recursiveResize=0;html=1;whiteSpace=wrap;strokeColor=#620000;fillColor=none;shadow=1;strokeWidth=2;fontFamily=Helvetica;" parent="J8bmJUvrc4zDFoC2kqw7-1" vertex="1">
          <mxGeometry x="10" y="400" width="460" height="160" as="geometry" />
        </mxCell>
        <mxCell id="J8bmJUvrc4zDFoC2kqw7-27" value="评估执行" style="shape=rect;fillColor=#620000;aspect=fixed;resizable=0;labelPosition=right;verticalLabelPosition=middle;align=left;verticalAlign=middle;strokeColor=none;part=1;spacingLeft=5;fontSize=18;fontStyle=1;fontColor=#620000;fontFamily=Helvetica;" parent="J8bmJUvrc4zDFoC2kqw7-26" vertex="1">
          <mxGeometry width="48" height="48" relative="1" as="geometry" />
        </mxCell>
        <mxCell id="J8bmJUvrc4zDFoC2kqw7-28" value="" style="fillColor=#ffffff;shape=mxgraph.ibm_cloud.ibm-cloud--bare-metal-server;strokeColor=none;dashed=0;outlineConnect=0;html=1;labelPosition=center;verticalLabelPosition=bottom;verticalAlign=top;part=1;movable=0;resizable=0;rotatable=0;fontFamily=Helvetica;" parent="J8bmJUvrc4zDFoC2kqw7-27" vertex="1">
          <mxGeometry width="24" height="24" relative="1" as="geometry">
            <mxPoint x="12" y="12" as="offset" />
          </mxGeometry>
        </mxCell>
        <mxCell id="J8bmJUvrc4zDFoC2kqw7-29" value="&lt;font style=&quot;&quot;&gt;性能评估代码逻辑&lt;/font&gt;" style="aspect=fixed;perimeter=ellipsePerimeter;html=1;align=center;shadow=0;dashed=0;image;image=img/lib/ibm/applications/application_logic.svg;labelBackgroundColor=none;strokeColor=#666666;strokeWidth=3;fillColor=#C2952D;gradientColor=none;fontSize=15;fontColor=#620000;spacingTop=0;fontStyle=1;spacing=-1;labelPosition=center;verticalLabelPosition=top;verticalAlign=bottom;fontFamily=Helvetica;" parent="J8bmJUvrc4zDFoC2kqw7-26" vertex="1">
          <mxGeometry x="340" y="80" width="60" height="60" as="geometry" />
        </mxCell>
        <mxCell id="J8bmJUvrc4zDFoC2kqw7-30" value="&lt;font style=&quot;&quot;&gt;可视化模块&lt;/font&gt;" style="aspect=fixed;perimeter=ellipsePerimeter;html=1;align=center;shadow=0;dashed=0;image;image=img/lib/ibm/applications/visualization.svg;labelBackgroundColor=none;strokeColor=#666666;strokeWidth=3;fillColor=#C2952D;gradientColor=none;fontSize=15;fontColor=#620000;fontStyle=1;spacing=0;spacingTop=0;labelPosition=center;verticalLabelPosition=top;verticalAlign=bottom;fontFamily=Helvetica;" parent="J8bmJUvrc4zDFoC2kqw7-26" vertex="1">
          <mxGeometry x="60" y="80" width="60" height="60" as="geometry" />
        </mxCell>
        <mxCell id="J8bmJUvrc4zDFoC2kqw7-31" value="&lt;font style=&quot;&quot;&gt;性能评测&lt;/font&gt;" style="aspect=fixed;perimeter=ellipsePerimeter;html=1;align=center;shadow=0;dashed=0;image;image=img/lib/ibm/analytics/analytics.svg;labelBackgroundColor=none;strokeColor=#666666;strokeWidth=3;fillColor=#C2952D;gradientColor=none;fontSize=15;fontColor=#620000;spacingTop=0;fontStyle=1;spacing=0;labelPosition=center;verticalLabelPosition=top;verticalAlign=bottom;fontFamily=Helvetica;" parent="J8bmJUvrc4zDFoC2kqw7-26" vertex="1">
          <mxGeometry x="200" y="80" width="60" height="60" as="geometry" />
        </mxCell>
        <mxCell id="J8bmJUvrc4zDFoC2kqw7-32" value="" style="endArrow=open;html=1;rounded=0;startArrow=open;startFill=0;endFill=0;strokeWidth=2;entryX=0;entryY=0.5;entryDx=0;entryDy=0;strokeColor=#620000;curved=0;opacity=50;shadow=0;flowAnimation=0;labelBackgroundColor=none;fontColor=#620000;fontFamily=Helvetica;" parent="J8bmJUvrc4zDFoC2kqw7-26" edge="1">
          <mxGeometry width="50" height="50" relative="1" as="geometry">
            <mxPoint x="120" y="109.67000000000002" as="sourcePoint" />
            <mxPoint x="200" y="109.67000000000002" as="targetPoint" />
          </mxGeometry>
        </mxCell>
        <mxCell id="J8bmJUvrc4zDFoC2kqw7-33" value="" style="endArrow=open;html=1;rounded=0;startArrow=open;startFill=0;endFill=0;strokeWidth=2;entryX=0;entryY=0.5;entryDx=0;entryDy=0;strokeColor=#620000;curved=0;opacity=50;shadow=0;flowAnimation=0;labelBackgroundColor=none;fontColor=#620000;fontFamily=Helvetica;" parent="J8bmJUvrc4zDFoC2kqw7-26" edge="1">
          <mxGeometry width="50" height="50" relative="1" as="geometry">
            <mxPoint x="260" y="109.67000000000002" as="sourcePoint" />
            <mxPoint x="340" y="109.67000000000002" as="targetPoint" />
          </mxGeometry>
        </mxCell>
        <mxCell id="J8bmJUvrc4zDFoC2kqw7-34" value="" style="endArrow=open;html=1;rounded=0;startArrow=open;startFill=0;endFill=0;strokeWidth=2;entryX=0;entryY=0.75;entryDx=0;entryDy=0;strokeColor=#620000;curved=1;opacity=50;shadow=0;flowAnimation=0;labelBackgroundColor=none;fontColor=#620000;edgeStyle=orthogonalEdgeStyle;exitX=1;exitY=0.75;exitDx=0;exitDy=0;fontFamily=Helvetica;" parent="J8bmJUvrc4zDFoC2kqw7-26" source="J8bmJUvrc4zDFoC2kqw7-30" target="J8bmJUvrc4zDFoC2kqw7-29" edge="1">
          <mxGeometry width="50" height="50" relative="1" as="geometry">
            <mxPoint x="190" y="40.000000000000014" as="sourcePoint" />
            <mxPoint x="270" y="40.000000000000014" as="targetPoint" />
            <Array as="points">
              <mxPoint x="117" y="155" />
              <mxPoint x="343" y="155" />
            </Array>
          </mxGeometry>
        </mxCell>
        <mxCell id="J8bmJUvrc4zDFoC2kqw7-35" value="" style="endArrow=open;html=1;rounded=0;startArrow=open;startFill=0;endFill=0;strokeWidth=3;entryX=1;entryY=0.5;entryDx=0;entryDy=0;strokeColor=#0A5252;shadow=0;flowAnimation=0;edgeStyle=orthogonalEdgeStyle;exitX=1;exitY=0.5;exitDx=0;exitDy=0;labelBackgroundColor=none;fontFamily=Helvetica;" parent="J8bmJUvrc4zDFoC2kqw7-1" source="J8bmJUvrc4zDFoC2kqw7-29" target="J8bmJUvrc4zDFoC2kqw7-17" edge="1">
          <mxGeometry width="50" height="50" relative="1" as="geometry">
            <mxPoint x="650" y="580.42" as="sourcePoint" />
            <mxPoint x="650" y="420" as="targetPoint" />
            <Array as="points">
              <mxPoint x="500" y="510" />
              <mxPoint x="500" y="320" />
            </Array>
          </mxGeometry>
        </mxCell>
      </root>
    </mxGraphModel>
  </diagram>
  <diagram id="HNVUm0HzwgY-ERgz9iGl" name="Page-4">
    <mxGraphModel dx="602" dy="332" grid="1" gridSize="10" guides="1" tooltips="1" connect="1" arrows="1" fold="1" page="1" pageScale="1" pageWidth="1290" pageHeight="900" math="0" shadow="0">
      <root>
        <mxCell id="0" />
        <mxCell id="1" parent="0" />
        <mxCell id="3MZQSqIQG4tGznweeyOq-1" value="" style="swimlane;shadow=0;strokeColor=#4277BB;fillColor=default;fontColor=#4277BB;align=right;startSize=0;collapsible=0;strokeWidth=3;fontStyle=1;perimeter=ellipsePerimeter;labelBackgroundColor=default;fontSize=18;" parent="1" vertex="1">
          <mxGeometry x="40" y="40" width="1205" height="820" as="geometry" />
        </mxCell>
        <mxCell id="3MZQSqIQG4tGznweeyOq-2" value="" style="group;labelBackgroundColor=default;glass=0;arcSize=24;rounded=0;fontSize=18;fontStyle=1" parent="3MZQSqIQG4tGznweeyOq-1" vertex="1" connectable="0">
          <mxGeometry x="156" y="186" width="60" height="60" as="geometry" />
        </mxCell>
        <mxCell id="3MZQSqIQG4tGznweeyOq-3" value="" style="shape=rect;fillColor=light-dark(#e02533, #ff6a72);aspect=fixed;resizable=1;labelPosition=center;verticalLabelPosition=bottom;align=center;verticalAlign=top;strokeColor=none;fontSize=18;rounded=1;fontFamily=Helvetica;fontColor=default;labelBackgroundColor=default;absoluteArcSize=1;arcSize=60;fontStyle=1" parent="3MZQSqIQG4tGznweeyOq-2" vertex="1">
          <mxGeometry width="60" height="60" as="geometry" />
        </mxCell>
        <mxCell id="3MZQSqIQG4tGznweeyOq-4" value="" style="fillColor=#ffffff;strokeColor=none;dashed=0;outlineConnect=0;html=1;labelPosition=center;verticalLabelPosition=bottom;verticalAlign=top;part=1;movable=1;resizable=1;rotatable=0;shape=mxgraph.ibm_cloud.bastion-host;rounded=0;align=center;fontFamily=Helvetica;fontSize=18;fontColor=default;labelBackgroundColor=default;fontStyle=1" parent="3MZQSqIQG4tGznweeyOq-2" vertex="1">
          <mxGeometry width="40" height="40" relative="1" as="geometry">
            <mxPoint x="10" y="10" as="offset" />
          </mxGeometry>
        </mxCell>
        <mxCell id="3MZQSqIQG4tGznweeyOq-5" style="edgeStyle=elbowEdgeStyle;rounded=0;elbow=vertical;html=1;exitX=0;exitY=0.5;entryX=0;entryY=0.5;labelBackgroundColor=default;startArrow=classic;startFill=1;startSize=4;endArrow=none;endFill=0;endSize=4;jettySize=auto;orthogonalLoop=1;strokeColor=#4277BB;strokeWidth=3;fontSize=18;fontColor=#4277BB;fontStyle=1" parent="3MZQSqIQG4tGznweeyOq-1" edge="1">
          <mxGeometry relative="1" as="geometry">
            <mxPoint x="219.42857142857156" y="690" as="sourcePoint" />
            <mxPoint x="219.42857142857156" y="690" as="targetPoint" />
          </mxGeometry>
        </mxCell>
        <mxCell id="3MZQSqIQG4tGznweeyOq-6" style="edgeStyle=orthogonalEdgeStyle;rounded=0;html=1;labelBackgroundColor=default;startArrow=classic;startFill=1;startSize=4;endArrow=classic;endFill=1;endSize=4;jettySize=auto;orthogonalLoop=1;strokeColor=#EEC11B;strokeWidth=3;fontSize=18;fontColor=#4277BB;fontStyle=1" parent="3MZQSqIQG4tGznweeyOq-1" source="3MZQSqIQG4tGznweeyOq-54" target="3MZQSqIQG4tGznweeyOq-59" edge="1">
          <mxGeometry relative="1" as="geometry" />
        </mxCell>
        <mxCell id="3MZQSqIQG4tGznweeyOq-7" style="edgeStyle=orthogonalEdgeStyle;rounded=0;html=1;labelBackgroundColor=default;startArrow=classic;startFill=1;startSize=4;endArrow=classic;endFill=1;endSize=4;jettySize=auto;orthogonalLoop=1;strokeColor=#4277BB;strokeWidth=3;fontSize=18;fontColor=#4277BB;fontStyle=1" parent="3MZQSqIQG4tGznweeyOq-1" edge="1">
          <mxGeometry relative="1" as="geometry">
            <mxPoint x="186" y="186" as="sourcePoint" />
            <mxPoint x="186.0000000000001" y="120" as="targetPoint" />
          </mxGeometry>
        </mxCell>
        <mxCell id="3MZQSqIQG4tGznweeyOq-8" style="edgeStyle=orthogonalEdgeStyle;rounded=0;html=1;labelBackgroundColor=default;startArrow=classic;startFill=1;startSize=4;endArrow=classic;endFill=1;endSize=4;jettySize=auto;orthogonalLoop=1;strokeColor=#4277BB;strokeWidth=3;fontSize=18;fontColor=#4277BB;entryX=0;entryY=0.5;fontStyle=1" parent="3MZQSqIQG4tGznweeyOq-1" target="3MZQSqIQG4tGznweeyOq-55" edge="1">
          <mxGeometry relative="1" as="geometry">
            <Array as="points">
              <mxPoint x="186" y="356" />
            </Array>
            <mxPoint x="186" y="246" as="sourcePoint" />
          </mxGeometry>
        </mxCell>
        <mxCell id="3MZQSqIQG4tGznweeyOq-9" value="&lt;font color=&quot;#4277bb&quot;&gt;&lt;span&gt;&lt;span&gt;跳板机&lt;/span&gt;&lt;/span&gt;&lt;/font&gt;" style="edgeLabel;html=1;align=center;verticalAlign=middle;resizable=0;points=[];rounded=0;fontFamily=Helvetica;fontSize=18;fontColor=default;fillColor=#FA4D56;labelBackgroundColor=default;fontStyle=1" parent="3MZQSqIQG4tGznweeyOq-8" vertex="1" connectable="0">
          <mxGeometry x="-0.8236" y="-1" relative="1" as="geometry">
            <mxPoint as="offset" />
          </mxGeometry>
        </mxCell>
        <mxCell id="3MZQSqIQG4tGznweeyOq-10" style="edgeStyle=orthogonalEdgeStyle;rounded=0;html=1;entryX=0;entryY=0.5;labelBackgroundColor=default;startArrow=classic;startFill=1;startSize=4;endArrow=classic;endFill=1;endSize=4;jettySize=auto;orthogonalLoop=1;strokeColor=#4277BB;strokeWidth=3;fontSize=18;fontColor=#4277BB;fontStyle=1" parent="3MZQSqIQG4tGznweeyOq-1" source="3MZQSqIQG4tGznweeyOq-55" target="3MZQSqIQG4tGznweeyOq-56" edge="1">
          <mxGeometry relative="1" as="geometry">
            <Array as="points">
              <mxPoint x="303" y="259" />
            </Array>
          </mxGeometry>
        </mxCell>
        <mxCell id="3MZQSqIQG4tGznweeyOq-11" style="edgeStyle=orthogonalEdgeStyle;rounded=0;html=1;labelBackgroundColor=default;startArrow=classic;startFill=1;startSize=4;endArrow=classic;endFill=1;endSize=4;jettySize=auto;orthogonalLoop=1;strokeColor=#4277BB;strokeWidth=3;fontSize=18;fontColor=#4277BB;fontStyle=1" parent="3MZQSqIQG4tGznweeyOq-1" source="3MZQSqIQG4tGznweeyOq-55" target="3MZQSqIQG4tGznweeyOq-57" edge="1">
          <mxGeometry relative="1" as="geometry" />
        </mxCell>
        <mxCell id="3MZQSqIQG4tGznweeyOq-12" style="edgeStyle=orthogonalEdgeStyle;rounded=0;html=1;labelBackgroundColor=default;startArrow=classic;startFill=1;startSize=4;endArrow=classic;endFill=1;endSize=4;jettySize=auto;orthogonalLoop=1;strokeColor=#4277BB;strokeWidth=3;fontSize=18;fontColor=#4277BB;fontStyle=1" parent="3MZQSqIQG4tGznweeyOq-1" source="3MZQSqIQG4tGznweeyOq-57" edge="1">
          <mxGeometry relative="1" as="geometry">
            <Array as="points">
              <mxPoint x="455" y="196" />
            </Array>
            <mxPoint x="208.36067977499783" y="196" as="targetPoint" />
          </mxGeometry>
        </mxCell>
        <mxCell id="3MZQSqIQG4tGznweeyOq-13" style="edgeStyle=orthogonalEdgeStyle;rounded=0;html=1;entryX=0.99;entryY=0.619;entryPerimeter=0;labelBackgroundColor=default;startArrow=classic;startFill=1;startSize=4;endArrow=classic;endFill=1;endSize=4;jettySize=auto;orthogonalLoop=1;strokeColor=#4277BB;strokeWidth=3;fontSize=18;fontColor=#4277BB;fontStyle=1" parent="3MZQSqIQG4tGznweeyOq-1" source="3MZQSqIQG4tGznweeyOq-57" target="3MZQSqIQG4tGznweeyOq-56" edge="1">
          <mxGeometry relative="1" as="geometry">
            <Array as="points">
              <mxPoint x="435" y="265" />
            </Array>
          </mxGeometry>
        </mxCell>
        <mxCell id="3MZQSqIQG4tGznweeyOq-14" style="edgeStyle=orthogonalEdgeStyle;rounded=0;html=1;entryX=0.75;entryY=1;labelBackgroundColor=default;startArrow=classic;startFill=0;startSize=4;endArrow=classic;endFill=1;endSize=4;jettySize=auto;orthogonalLoop=1;strokeColor=#EEC11B;strokeWidth=3;fontSize=18;fontColor=#4277BB;fontStyle=1" parent="3MZQSqIQG4tGznweeyOq-1" source="3MZQSqIQG4tGznweeyOq-58" target="3MZQSqIQG4tGznweeyOq-57" edge="1">
          <mxGeometry relative="1" as="geometry" />
        </mxCell>
        <mxCell id="3MZQSqIQG4tGznweeyOq-15" style="edgeStyle=orthogonalEdgeStyle;rounded=0;html=1;labelBackgroundColor=default;startArrow=classic;startFill=1;startSize=4;endArrow=classic;endFill=1;endSize=4;jettySize=auto;orthogonalLoop=1;strokeColor=#4277BB;strokeWidth=3;fontSize=18;fontColor=#4277BB;fontStyle=1" parent="3MZQSqIQG4tGznweeyOq-1" source="3MZQSqIQG4tGznweeyOq-58" target="3MZQSqIQG4tGznweeyOq-57" edge="1">
          <mxGeometry relative="1" as="geometry">
            <Array as="points">
              <mxPoint x="515" y="356" />
            </Array>
          </mxGeometry>
        </mxCell>
        <mxCell id="3MZQSqIQG4tGznweeyOq-16" style="edgeStyle=orthogonalEdgeStyle;rounded=0;html=1;labelBackgroundColor=default;startArrow=classic;startFill=1;startSize=4;endArrow=classic;endFill=1;endSize=4;jettySize=auto;orthogonalLoop=1;strokeColor=#4277BB;strokeWidth=3;fontSize=18;fontColor=#4277BB;fontStyle=1" parent="3MZQSqIQG4tGznweeyOq-1" source="3MZQSqIQG4tGznweeyOq-58" target="3MZQSqIQG4tGznweeyOq-61" edge="1">
          <mxGeometry relative="1" as="geometry">
            <Array as="points">
              <mxPoint x="545" y="199" />
            </Array>
          </mxGeometry>
        </mxCell>
        <mxCell id="3MZQSqIQG4tGznweeyOq-17" style="edgeStyle=orthogonalEdgeStyle;rounded=0;html=1;labelBackgroundColor=default;startArrow=classic;startFill=1;startSize=4;endArrow=classic;endFill=1;endSize=4;jettySize=auto;orthogonalLoop=1;strokeColor=#4277BB;strokeWidth=3;fontSize=18;fontColor=#4277BB;fontStyle=1" parent="3MZQSqIQG4tGznweeyOq-1" source="3MZQSqIQG4tGznweeyOq-58" target="3MZQSqIQG4tGznweeyOq-64" edge="1">
          <mxGeometry relative="1" as="geometry">
            <Array as="points">
              <mxPoint x="605" y="457" />
              <mxPoint x="605" y="457" />
            </Array>
          </mxGeometry>
        </mxCell>
        <mxCell id="3MZQSqIQG4tGznweeyOq-18" style="edgeStyle=orthogonalEdgeStyle;rounded=0;html=1;labelBackgroundColor=default;startArrow=classic;startFill=1;startSize=4;endArrow=classic;endFill=1;endSize=4;jettySize=auto;orthogonalLoop=1;strokeColor=#4277BB;strokeWidth=3;fontSize=18;fontColor=#4277BB;fontStyle=1" parent="3MZQSqIQG4tGznweeyOq-1" source="3MZQSqIQG4tGznweeyOq-58" target="3MZQSqIQG4tGznweeyOq-62" edge="1">
          <mxGeometry relative="1" as="geometry">
            <Array as="points">
              <mxPoint x="605" y="446" />
              <mxPoint x="605" y="312" />
            </Array>
          </mxGeometry>
        </mxCell>
        <mxCell id="3MZQSqIQG4tGznweeyOq-19" style="edgeStyle=orthogonalEdgeStyle;rounded=0;html=1;labelBackgroundColor=default;startArrow=classic;startFill=0;startSize=4;endArrow=classic;endFill=1;endSize=4;jettySize=auto;orthogonalLoop=1;strokeColor=#EEC11B;strokeWidth=3;fontSize=18;fontColor=#4277BB;fontStyle=1" parent="3MZQSqIQG4tGznweeyOq-1" source="3MZQSqIQG4tGznweeyOq-58" target="3MZQSqIQG4tGznweeyOq-62" edge="1">
          <mxGeometry relative="1" as="geometry">
            <Array as="points">
              <mxPoint x="575" y="437" />
              <mxPoint x="575" y="297" />
            </Array>
          </mxGeometry>
        </mxCell>
        <mxCell id="3MZQSqIQG4tGznweeyOq-20" style="edgeStyle=orthogonalEdgeStyle;rounded=0;html=1;labelBackgroundColor=default;startArrow=classic;startFill=0;startSize=4;endArrow=classic;endFill=1;endSize=4;jettySize=auto;orthogonalLoop=1;strokeColor=#EEC11B;strokeWidth=3;fontSize=18;fontColor=#4277BB;fontStyle=1" parent="3MZQSqIQG4tGznweeyOq-1" source="3MZQSqIQG4tGznweeyOq-59" target="3MZQSqIQG4tGznweeyOq-55" edge="1">
          <mxGeometry relative="1" as="geometry">
            <Array as="points">
              <mxPoint x="303" y="446" />
            </Array>
          </mxGeometry>
        </mxCell>
        <mxCell id="3MZQSqIQG4tGznweeyOq-21" style="edgeStyle=orthogonalEdgeStyle;rounded=0;html=1;entryX=0.25;entryY=1;labelBackgroundColor=default;startArrow=classic;startFill=0;startSize=4;endArrow=classic;endFill=1;endSize=4;jettySize=auto;orthogonalLoop=1;strokeColor=#EEC11B;strokeWidth=3;fontSize=18;fontColor=#4277BB;fontStyle=1" parent="3MZQSqIQG4tGznweeyOq-1" source="3MZQSqIQG4tGznweeyOq-59" target="3MZQSqIQG4tGznweeyOq-57" edge="1">
          <mxGeometry relative="1" as="geometry" />
        </mxCell>
        <mxCell id="3MZQSqIQG4tGznweeyOq-22" style="edgeStyle=orthogonalEdgeStyle;rounded=0;html=1;labelBackgroundColor=default;startArrow=classic;startFill=1;startSize=4;endArrow=classic;endFill=1;endSize=4;jettySize=auto;orthogonalLoop=1;strokeColor=#4277BB;strokeWidth=3;fontSize=18;fontColor=#4277BB;entryX=0.5;entryY=0;fontStyle=1" parent="3MZQSqIQG4tGznweeyOq-1" source="3MZQSqIQG4tGznweeyOq-60" target="3MZQSqIQG4tGznweeyOq-58" edge="1">
          <mxGeometry relative="1" as="geometry">
            <Array as="points">
              <mxPoint x="528" y="75" />
            </Array>
          </mxGeometry>
        </mxCell>
        <mxCell id="3MZQSqIQG4tGznweeyOq-23" style="edgeStyle=orthogonalEdgeStyle;rounded=0;html=1;labelBackgroundColor=default;startArrow=classic;startFill=1;startSize=4;endArrow=classic;endFill=1;endSize=4;jettySize=auto;orthogonalLoop=1;strokeColor=#4277BB;strokeWidth=3;fontSize=18;fontColor=#4277BB;entryX=1;entryY=0.25;fontStyle=1" parent="3MZQSqIQG4tGznweeyOq-1" source="3MZQSqIQG4tGznweeyOq-57" target="3MZQSqIQG4tGznweeyOq-62" edge="1">
          <mxGeometry relative="1" as="geometry">
            <Array as="points">
              <mxPoint x="465" y="37" />
              <mxPoint x="935" y="37" />
              <mxPoint x="935" y="299" />
            </Array>
          </mxGeometry>
        </mxCell>
        <mxCell id="3MZQSqIQG4tGznweeyOq-24" style="edgeStyle=orthogonalEdgeStyle;rounded=0;html=1;labelBackgroundColor=default;startArrow=classic;startFill=1;startSize=4;endArrow=classic;endFill=1;endSize=4;jettySize=auto;orthogonalLoop=1;strokeColor=#4277BB;strokeWidth=3;fontSize=18;fontColor=#4277BB;fontStyle=1" parent="3MZQSqIQG4tGznweeyOq-1" source="3MZQSqIQG4tGznweeyOq-60" target="3MZQSqIQG4tGznweeyOq-63" edge="1">
          <mxGeometry relative="1" as="geometry" />
        </mxCell>
        <mxCell id="3MZQSqIQG4tGznweeyOq-25" style="edgeStyle=orthogonalEdgeStyle;rounded=0;html=1;labelBackgroundColor=default;startArrow=classic;startFill=1;startSize=4;endArrow=classic;endFill=1;endSize=4;jettySize=auto;orthogonalLoop=1;strokeColor=#4277BB;strokeWidth=3;fontSize=18;fontColor=#4277BB;fontStyle=1" parent="3MZQSqIQG4tGznweeyOq-1" source="3MZQSqIQG4tGznweeyOq-61" target="3MZQSqIQG4tGznweeyOq-63" edge="1">
          <mxGeometry relative="1" as="geometry" />
        </mxCell>
        <mxCell id="3MZQSqIQG4tGznweeyOq-26" style="edgeStyle=orthogonalEdgeStyle;rounded=0;html=1;labelBackgroundColor=default;startArrow=classic;startFill=1;startSize=4;endArrow=classic;endFill=1;endSize=4;jettySize=auto;orthogonalLoop=1;strokeColor=#4277BB;strokeWidth=3;fontSize=18;fontColor=#4277BB;fontStyle=1" parent="3MZQSqIQG4tGznweeyOq-1" source="3MZQSqIQG4tGznweeyOq-64" target="3MZQSqIQG4tGznweeyOq-69" edge="1">
          <mxGeometry relative="1" as="geometry">
            <Array as="points">
              <mxPoint x="823" y="427" />
              <mxPoint x="823" y="326" />
            </Array>
          </mxGeometry>
        </mxCell>
        <mxCell id="3MZQSqIQG4tGznweeyOq-27" style="edgeStyle=orthogonalEdgeStyle;rounded=0;html=1;labelBackgroundColor=default;startArrow=classic;startFill=1;startSize=4;endArrow=classic;endFill=1;endSize=4;jettySize=auto;orthogonalLoop=1;strokeColor=#4277BB;strokeWidth=3;fontSize=18;fontColor=#4277BB;fontStyle=1" parent="3MZQSqIQG4tGznweeyOq-1" source="3MZQSqIQG4tGznweeyOq-64" target="3MZQSqIQG4tGznweeyOq-67" edge="1">
          <mxGeometry relative="1" as="geometry">
            <Array as="points">
              <mxPoint x="824" y="446" />
            </Array>
          </mxGeometry>
        </mxCell>
        <mxCell id="3MZQSqIQG4tGznweeyOq-28" style="edgeStyle=orthogonalEdgeStyle;rounded=0;html=1;labelBackgroundColor=default;startArrow=classic;startFill=0;startSize=4;endArrow=classic;endFill=1;endSize=4;jettySize=auto;orthogonalLoop=1;strokeColor=#EEC11B;strokeWidth=3;fontSize=18;fontColor=#4277BB;fontStyle=1" parent="3MZQSqIQG4tGznweeyOq-1" source="3MZQSqIQG4tGznweeyOq-65" target="3MZQSqIQG4tGznweeyOq-64" edge="1">
          <mxGeometry relative="1" as="geometry">
            <Array as="points">
              <mxPoint x="624" y="467" />
            </Array>
          </mxGeometry>
        </mxCell>
        <mxCell id="3MZQSqIQG4tGznweeyOq-29" style="edgeStyle=orthogonalEdgeStyle;rounded=0;html=1;entryX=0.75;entryY=1;labelBackgroundColor=default;startArrow=classic;startFill=1;startSize=4;endArrow=classic;endFill=1;endSize=4;jettySize=auto;orthogonalLoop=1;strokeColor=#4277BB;strokeWidth=3;fontSize=18;fontColor=#4277BB;fontStyle=1" parent="3MZQSqIQG4tGznweeyOq-1" source="3MZQSqIQG4tGznweeyOq-65" target="3MZQSqIQG4tGznweeyOq-58" edge="1">
          <mxGeometry relative="1" as="geometry" />
        </mxCell>
        <mxCell id="3MZQSqIQG4tGznweeyOq-30" style="edgeStyle=orthogonalEdgeStyle;rounded=0;html=1;labelBackgroundColor=default;startArrow=classic;startFill=1;startSize=4;endArrow=classic;endFill=1;endSize=4;jettySize=auto;orthogonalLoop=1;strokeColor=#4277BB;strokeWidth=3;fontSize=18;fontColor=#4277BB;fontStyle=1" parent="3MZQSqIQG4tGznweeyOq-1" source="3MZQSqIQG4tGznweeyOq-66" target="3MZQSqIQG4tGznweeyOq-64" edge="1">
          <mxGeometry relative="1" as="geometry" />
        </mxCell>
        <mxCell id="3MZQSqIQG4tGznweeyOq-31" style="edgeStyle=orthogonalEdgeStyle;rounded=0;html=1;entryX=0.5;entryY=1;labelBackgroundColor=default;startArrow=classic;startFill=1;startSize=4;endArrow=classic;endFill=1;endSize=4;jettySize=auto;orthogonalLoop=1;strokeColor=#4277BB;strokeWidth=3;fontSize=18;fontColor=#4277BB;fontStyle=1" parent="3MZQSqIQG4tGznweeyOq-1" source="3MZQSqIQG4tGznweeyOq-66" target="3MZQSqIQG4tGznweeyOq-58" edge="1">
          <mxGeometry relative="1" as="geometry">
            <Array as="points">
              <mxPoint x="733" y="667" />
              <mxPoint x="528" y="667" />
            </Array>
          </mxGeometry>
        </mxCell>
        <mxCell id="3MZQSqIQG4tGznweeyOq-32" style="edgeStyle=orthogonalEdgeStyle;rounded=0;html=1;labelBackgroundColor=default;startArrow=classic;startFill=1;startSize=4;endArrow=classic;endFill=1;endSize=4;jettySize=auto;orthogonalLoop=1;strokeColor=#4277BB;strokeWidth=3;fontSize=18;fontColor=#4277BB;fontStyle=1" parent="3MZQSqIQG4tGznweeyOq-1" source="3MZQSqIQG4tGznweeyOq-68" target="3MZQSqIQG4tGznweeyOq-69" edge="1">
          <mxGeometry relative="1" as="geometry">
            <Array as="points">
              <mxPoint x="923" y="337" />
            </Array>
          </mxGeometry>
        </mxCell>
        <mxCell id="3MZQSqIQG4tGznweeyOq-33" style="edgeStyle=orthogonalEdgeStyle;rounded=0;html=1;entryX=0.25;entryY=1;labelBackgroundColor=default;startArrow=classic;startFill=1;startSize=4;endArrow=classic;endFill=1;endSize=4;jettySize=auto;orthogonalLoop=1;strokeColor=#4277BB;strokeWidth=3;fontSize=18;fontColor=#4277BB;fontStyle=1" parent="3MZQSqIQG4tGznweeyOq-1" source="3MZQSqIQG4tGznweeyOq-68" target="3MZQSqIQG4tGznweeyOq-58" edge="1">
          <mxGeometry relative="1" as="geometry">
            <Array as="points">
              <mxPoint x="922" y="687" />
              <mxPoint x="515" y="687" />
            </Array>
          </mxGeometry>
        </mxCell>
        <mxCell id="3MZQSqIQG4tGznweeyOq-34" style="edgeStyle=orthogonalEdgeStyle;rounded=0;html=1;labelBackgroundColor=default;startArrow=classic;startFill=1;startSize=4;endArrow=classic;endFill=1;endSize=4;jettySize=auto;orthogonalLoop=1;strokeColor=#4277BB;strokeWidth=3;fontSize=18;fontColor=#4277BB;fontStyle=1" parent="3MZQSqIQG4tGznweeyOq-1" source="3MZQSqIQG4tGznweeyOq-69" target="3MZQSqIQG4tGznweeyOq-71" edge="1">
          <mxGeometry relative="1" as="geometry" />
        </mxCell>
        <mxCell id="3MZQSqIQG4tGznweeyOq-35" style="edgeStyle=orthogonalEdgeStyle;rounded=0;html=1;entryX=0.75;entryY=0;labelBackgroundColor=default;startArrow=classic;startFill=1;startSize=4;endArrow=classic;endFill=1;endSize=4;jettySize=auto;orthogonalLoop=1;strokeColor=#4277BB;strokeWidth=3;fontSize=18;fontColor=#4277BB;fontStyle=1" parent="3MZQSqIQG4tGznweeyOq-1" source="3MZQSqIQG4tGznweeyOq-70" target="3MZQSqIQG4tGznweeyOq-69" edge="1">
          <mxGeometry relative="1" as="geometry" />
        </mxCell>
        <mxCell id="3MZQSqIQG4tGznweeyOq-36" style="edgeStyle=orthogonalEdgeStyle;rounded=0;html=1;entryX=0.75;entryY=1;labelBackgroundColor=default;startArrow=classic;startFill=1;startSize=4;endArrow=classic;endFill=1;endSize=4;jettySize=auto;orthogonalLoop=1;strokeColor=#4277BB;strokeWidth=3;fontSize=18;fontColor=#4277BB;fontStyle=1" parent="3MZQSqIQG4tGznweeyOq-1" source="3MZQSqIQG4tGznweeyOq-72" target="3MZQSqIQG4tGznweeyOq-69" edge="1">
          <mxGeometry relative="1" as="geometry" />
        </mxCell>
        <mxCell id="3MZQSqIQG4tGznweeyOq-37" style="edgeStyle=orthogonalEdgeStyle;rounded=0;html=1;labelBackgroundColor=default;startArrow=classic;startFill=1;startSize=4;endArrow=classic;endFill=1;endSize=4;jettySize=auto;orthogonalLoop=1;strokeColor=#4277BB;strokeWidth=3;fontSize=18;fontColor=#4277BB;fontStyle=1" parent="3MZQSqIQG4tGznweeyOq-1" source="3MZQSqIQG4tGznweeyOq-62" target="3MZQSqIQG4tGznweeyOq-61" edge="1">
          <mxGeometry relative="1" as="geometry" />
        </mxCell>
        <mxCell id="3MZQSqIQG4tGznweeyOq-38" value="测试用户层" style="text;html=1;align=center;verticalAlign=top;fontColor=#4277BB;shadow=0;dashed=0;strokeColor=none;fillColor=none;labelBackgroundColor=default;fontStyle=1;fontSize=18;spacingLeft=5;strokeWidth=3;" parent="3MZQSqIQG4tGznweeyOq-1" vertex="1">
          <mxGeometry width="130" height="30" as="geometry" />
        </mxCell>
        <mxCell id="3MZQSqIQG4tGznweeyOq-39" value="" style="line;strokeWidth=3;direction=south;html=1;shadow=0;labelBackgroundColor=default;fillColor=none;gradientColor=none;fontSize=18;fontColor=#4277BB;align=right;strokeColor=#4277BB;fontStyle=1" parent="3MZQSqIQG4tGznweeyOq-1" vertex="1">
          <mxGeometry x="125" y="1" width="10" height="69" as="geometry" />
        </mxCell>
        <mxCell id="3MZQSqIQG4tGznweeyOq-40" value="" style="line;strokeWidth=3;direction=south;html=1;shadow=0;labelBackgroundColor=default;fillColor=none;gradientColor=none;fontSize=18;fontColor=#4277BB;align=right;strokeColor=#4277BB;fontStyle=1" parent="3MZQSqIQG4tGznweeyOq-1" vertex="1">
          <mxGeometry x="980" width="10" height="279" as="geometry" />
        </mxCell>
        <mxCell id="3MZQSqIQG4tGznweeyOq-41" value="远程连接层" style="text;html=1;align=center;verticalAlign=top;fontColor=#4277BB;shadow=0;dashed=0;strokeColor=none;fillColor=none;labelBackgroundColor=default;fontStyle=1;fontSize=18;spacingLeft=5;strokeWidth=3;" parent="3MZQSqIQG4tGznweeyOq-1" vertex="1">
          <mxGeometry x="130" y="1" width="112" height="50" as="geometry" />
        </mxCell>
        <mxCell id="3MZQSqIQG4tGznweeyOq-42" value="数据扩展层" style="text;html=1;align=center;verticalAlign=top;fontColor=#4277BB;shadow=0;dashed=0;strokeColor=none;fillColor=none;labelBackgroundColor=default;fontStyle=1;fontSize=18;spacingLeft=5;strokeWidth=3;" parent="3MZQSqIQG4tGznweeyOq-1" vertex="1">
          <mxGeometry x="990" width="210" height="30" as="geometry" />
        </mxCell>
        <mxCell id="3MZQSqIQG4tGznweeyOq-43" value="应用组件" style="rounded=0;html=1;shadow=0;labelBackgroundColor=default;strokeColor=none;strokeWidth=3;fillColor=#EBC01A;gradientColor=none;fontSize=18;fontColor=#4277BB;align=left;labelPosition=right;verticalLabelPosition=middle;verticalAlign=middle;spacingLeft=5;fontStyle=1" parent="3MZQSqIQG4tGznweeyOq-1" vertex="1">
          <mxGeometry x="1002" y="655" width="20" height="10" as="geometry" />
        </mxCell>
        <mxCell id="3MZQSqIQG4tGznweeyOq-44" value="基础设施" style="rounded=0;html=1;shadow=0;labelBackgroundColor=default;strokeColor=none;strokeWidth=3;fillColor=#8DC642;gradientColor=none;fontSize=18;fontColor=#4277BB;align=left;labelPosition=right;verticalLabelPosition=middle;verticalAlign=middle;spacingLeft=5;fontStyle=1" parent="3MZQSqIQG4tGznweeyOq-1" vertex="1">
          <mxGeometry x="1002" y="675" width="20" height="10" as="geometry" />
        </mxCell>
        <mxCell id="3MZQSqIQG4tGznweeyOq-45" value="管理模块" style="rounded=0;html=1;shadow=0;labelBackgroundColor=default;strokeColor=none;strokeWidth=3;fillColor=#0DB39D;gradientColor=none;fontSize=18;fontColor=#4277BB;align=left;labelPosition=right;verticalLabelPosition=middle;verticalAlign=middle;spacingLeft=5;fontStyle=1" parent="3MZQSqIQG4tGznweeyOq-1" vertex="1">
          <mxGeometry x="1002" y="695" width="20" height="10" as="geometry" />
        </mxCell>
        <mxCell id="3MZQSqIQG4tGznweeyOq-46" value="模型/数据存储" style="rounded=0;html=1;shadow=0;labelBackgroundColor=default;strokeColor=none;strokeWidth=3;fillColor=#335D81;gradientColor=none;fontSize=18;fontColor=#4277BB;align=left;labelPosition=right;verticalLabelPosition=middle;verticalAlign=middle;spacingLeft=5;fontStyle=1" parent="3MZQSqIQG4tGznweeyOq-1" vertex="1">
          <mxGeometry x="1002" y="715" width="20" height="10" as="geometry" />
        </mxCell>
        <mxCell id="3MZQSqIQG4tGznweeyOq-47" value="性能分析" style="rounded=0;html=1;shadow=0;labelBackgroundColor=default;strokeColor=none;strokeWidth=3;fillColor=#744399;gradientColor=none;fontSize=18;fontColor=#4277BB;align=left;labelPosition=right;verticalLabelPosition=middle;verticalAlign=middle;spacingLeft=5;fontStyle=1" parent="3MZQSqIQG4tGznweeyOq-1" vertex="1">
          <mxGeometry x="1002" y="735" width="20" height="10" as="geometry" />
        </mxCell>
        <mxCell id="3MZQSqIQG4tGznweeyOq-48" value="可用设备" style="rounded=0;html=1;shadow=0;labelBackgroundColor=default;strokeColor=none;strokeWidth=3;fillColor=#A72870;gradientColor=none;fontSize=18;fontColor=#4277BB;align=left;labelPosition=right;verticalLabelPosition=middle;verticalAlign=middle;spacingLeft=5;fontStyle=1" parent="3MZQSqIQG4tGznweeyOq-1" vertex="1">
          <mxGeometry x="1002" y="755" width="20" height="10" as="geometry" />
        </mxCell>
        <mxCell id="3MZQSqIQG4tGznweeyOq-49" value="任务加载对象" style="rounded=0;html=1;shadow=0;labelBackgroundColor=default;strokeColor=none;strokeWidth=3;fillColor=#E52134;gradientColor=none;fontSize=18;fontColor=#4277BB;align=left;labelPosition=right;verticalLabelPosition=middle;verticalAlign=middle;spacingLeft=5;fontStyle=1" parent="3MZQSqIQG4tGznweeyOq-1" vertex="1">
          <mxGeometry x="1002" y="775" width="20" height="10" as="geometry" />
        </mxCell>
        <mxCell id="3MZQSqIQG4tGznweeyOq-50" value="图例说明" style="text;html=1;align=left;verticalAlign=middle;fontColor=#4277BB;shadow=0;dashed=0;strokeColor=none;fillColor=none;labelBackgroundColor=default;fontStyle=1;fontSize=18;spacingLeft=0;strokeWidth=3;" parent="3MZQSqIQG4tGznweeyOq-1" vertex="1">
          <mxGeometry x="1002" y="625" width="150" height="20" as="geometry" />
        </mxCell>
        <mxCell id="3MZQSqIQG4tGznweeyOq-51" value="" style="line;strokeWidth=3;direction=south;html=1;shadow=0;labelBackgroundColor=default;fillColor=none;gradientColor=none;fontSize=18;fontColor=#4277BB;align=right;strokeColor=#4277BB;fontStyle=1" parent="3MZQSqIQG4tGznweeyOq-1" vertex="1">
          <mxGeometry x="125" y="470" width="10" height="350" as="geometry" />
        </mxCell>
        <mxCell id="3MZQSqIQG4tGznweeyOq-52" value="" style="line;strokeWidth=3;direction=south;html=1;shadow=0;labelBackgroundColor=default;fillColor=none;gradientColor=none;fontSize=18;fontColor=#4277BB;align=right;strokeColor=#4277BB;fontStyle=1" parent="3MZQSqIQG4tGznweeyOq-1" vertex="1">
          <mxGeometry x="125" y="110" width="10" height="320" as="geometry" />
        </mxCell>
        <mxCell id="3MZQSqIQG4tGznweeyOq-53" value="用户" style="rounded=0;html=1;shadow=0;labelBackgroundColor=default;strokeColor=none;strokeWidth=3;fillColor=#C2952D;gradientColor=none;fontSize=18;fontColor=#4277BB;align=left;labelPosition=right;verticalLabelPosition=middle;verticalAlign=middle;spacingLeft=5;fontStyle=1" parent="3MZQSqIQG4tGznweeyOq-1" vertex="1">
          <mxGeometry x="1002" y="795" width="20" height="10" as="geometry" />
        </mxCell>
        <mxCell id="3MZQSqIQG4tGznweeyOq-54" value="服务器用户" style="aspect=fixed;perimeter=ellipsePerimeter;html=1;align=center;shadow=0;dashed=0;image;image=img/lib/ibm/users/user.svg;labelBackgroundColor=default;strokeColor=#666666;strokeWidth=3;fillColor=#C2952D;gradientColor=none;fontSize=18;fontColor=#4277BB;spacingTop=3;fontStyle=1" parent="3MZQSqIQG4tGznweeyOq-1" vertex="1">
          <mxGeometry x="30" y="60" width="60" height="60" as="geometry" />
        </mxCell>
        <mxCell id="3MZQSqIQG4tGznweeyOq-55" value="计算节点" style="aspect=fixed;perimeter=ellipsePerimeter;html=1;align=center;shadow=0;dashed=0;image;image=img/lib/ibm/security/gateway.svg;labelBackgroundColor=default;strokeColor=#666666;strokeWidth=3;fillColor=#C2952D;gradientColor=none;fontSize=18;fontColor=#4277BB;spacingTop=3;fontStyle=1;imageBackground=none;" parent="3MZQSqIQG4tGznweeyOq-1" vertex="1">
          <mxGeometry x="273" y="326" width="60" height="60" as="geometry" />
        </mxCell>
        <mxCell id="3MZQSqIQG4tGznweeyOq-56" value="客制化评测需求" style="aspect=fixed;perimeter=ellipsePerimeter;html=1;align=center;shadow=0;dashed=0;image;image=img/lib/ibm/miscellaneous/ibm_public_cloud.svg;labelBackgroundColor=default;strokeColor=#666666;strokeWidth=3;fillColor=#C2952D;gradientColor=none;fontSize=18;fontColor=#4277BB;fontStyle=1" parent="3MZQSqIQG4tGznweeyOq-1" vertex="1">
          <mxGeometry x="345" y="236" width="60" height="46.2" as="geometry" />
        </mxCell>
        <mxCell id="3MZQSqIQG4tGznweeyOq-57" value="评测任务" style="aspect=fixed;perimeter=ellipsePerimeter;html=1;align=center;shadow=0;dashed=0;image;image=img/lib/ibm/infrastructure/edge_services.svg;labelBackgroundColor=default;strokeColor=#666666;strokeWidth=3;fillColor=#C2952D;gradientColor=none;fontSize=18;fontColor=#4277BB;spacingTop=3;fontStyle=1" parent="3MZQSqIQG4tGznweeyOq-1" vertex="1">
          <mxGeometry x="415" y="326" width="60" height="60" as="geometry" />
        </mxCell>
        <mxCell id="3MZQSqIQG4tGznweeyOq-58" value="并发性能评估进程" style="aspect=fixed;perimeter=ellipsePerimeter;html=1;align=center;shadow=0;dashed=0;image;image=img/lib/ibm/infrastructure/transformation_connectivity.svg;labelBackgroundColor=default;strokeColor=#666666;strokeWidth=3;fillColor=#C2952D;gradientColor=none;fontSize=18;fontColor=#4277BB;spacingTop=3;fontStyle=1" parent="3MZQSqIQG4tGznweeyOq-1" vertex="1">
          <mxGeometry x="498" y="416" width="60" height="60" as="geometry" />
        </mxCell>
        <mxCell id="3MZQSqIQG4tGznweeyOq-59" value="测试代理" style="aspect=fixed;perimeter=ellipsePerimeter;html=1;align=center;shadow=0;dashed=0;image;image=img/lib/ibm/applications/enterprise_applications.svg;labelBackgroundColor=default;strokeColor=#666666;strokeWidth=3;fillColor=#C2952D;gradientColor=none;fontSize=18;fontColor=#4277BB;fontStyle=1" parent="3MZQSqIQG4tGznweeyOq-1" vertex="1">
          <mxGeometry x="30" y="426" width="60" height="60" as="geometry" />
        </mxCell>
        <mxCell id="3MZQSqIQG4tGznweeyOq-60" value="模型存储库" style="aspect=fixed;perimeter=ellipsePerimeter;html=1;align=center;shadow=0;dashed=0;image;image=img/lib/ibm/data/device_registry.svg;labelBackgroundColor=default;strokeColor=#666666;strokeWidth=3;fillColor=#C2952D;gradientColor=none;fontSize=18;fontColor=#4277BB;fontStyle=1" parent="3MZQSqIQG4tGznweeyOq-1" vertex="1">
          <mxGeometry x="703" y="45" width="60" height="60" as="geometry" />
        </mxCell>
        <mxCell id="3MZQSqIQG4tGznweeyOq-61" value="当前可用计算设备" style="aspect=fixed;perimeter=ellipsePerimeter;html=1;align=center;shadow=0;dashed=0;image;image=img/lib/ibm/management/device_management.svg;labelBackgroundColor=default;strokeColor=#666666;strokeWidth=3;fillColor=#C2952D;gradientColor=none;fontSize=18;fontColor=#4277BB;spacingTop=3;fontStyle=1" parent="3MZQSqIQG4tGznweeyOq-1" vertex="1">
          <mxGeometry x="703" y="169" width="60" height="60" as="geometry" />
        </mxCell>
        <mxCell id="3MZQSqIQG4tGznweeyOq-62" value="API 管理" style="aspect=fixed;perimeter=ellipsePerimeter;html=1;align=center;shadow=0;dashed=0;image;image=img/lib/ibm/management/api_management.svg;labelBackgroundColor=default;strokeColor=#666666;strokeWidth=3;fillColor=#C2952D;gradientColor=none;fontSize=18;fontColor=#4277BB;fontStyle=1" parent="3MZQSqIQG4tGznweeyOq-1" vertex="1">
          <mxGeometry x="703" y="282" width="60" height="60" as="geometry" />
        </mxCell>
        <mxCell id="3MZQSqIQG4tGznweeyOq-63" value="当前评测模型" style="aspect=fixed;perimeter=ellipsePerimeter;html=1;align=center;shadow=0;dashed=0;image;image=img/lib/ibm/data/device_identity_service.svg;labelBackgroundColor=default;strokeColor=#666666;strokeWidth=3;fillColor=#C2952D;gradientColor=none;fontSize=18;fontColor=#4277BB;fontStyle=1;spacing=5;" parent="3MZQSqIQG4tGznweeyOq-1" vertex="1">
          <mxGeometry x="831" y="169" width="60" height="60" as="geometry" />
        </mxCell>
        <mxCell id="3MZQSqIQG4tGznweeyOq-64" value="性能评估代码逻辑" style="aspect=fixed;perimeter=ellipsePerimeter;html=1;align=center;shadow=0;dashed=0;image;image=img/lib/ibm/applications/application_logic.svg;labelBackgroundColor=default;strokeColor=#666666;strokeWidth=3;fillColor=#C2952D;gradientColor=none;fontSize=18;fontColor=#4277BB;spacingTop=3;fontStyle=1" parent="3MZQSqIQG4tGznweeyOq-1" vertex="1">
          <mxGeometry x="703" y="416" width="60" height="60" as="geometry" />
        </mxCell>
        <mxCell id="3MZQSqIQG4tGznweeyOq-65" value="可视化模块" style="aspect=fixed;perimeter=ellipsePerimeter;html=1;align=center;shadow=0;dashed=0;image;image=img/lib/ibm/applications/visualization.svg;labelBackgroundColor=default;strokeColor=#666666;strokeWidth=3;fillColor=#C2952D;gradientColor=none;fontSize=18;fontColor=#4277BB;fontStyle=1;spacing=2;spacingTop=3;" parent="3MZQSqIQG4tGznweeyOq-1" vertex="1">
          <mxGeometry x="594" y="556" width="60" height="60" as="geometry" />
        </mxCell>
        <mxCell id="3MZQSqIQG4tGznweeyOq-66" value="性能评测" style="aspect=fixed;perimeter=ellipsePerimeter;html=1;align=center;shadow=0;dashed=0;image;image=img/lib/ibm/analytics/analytics.svg;labelBackgroundColor=default;strokeColor=#666666;strokeWidth=3;fillColor=#C2952D;gradientColor=none;fontSize=18;fontColor=#4277BB;spacingTop=3;fontStyle=1" parent="3MZQSqIQG4tGznweeyOq-1" vertex="1">
          <mxGeometry x="703" y="556" width="60" height="60" as="geometry" />
        </mxCell>
        <mxCell id="3MZQSqIQG4tGznweeyOq-67" value="进程管理" style="aspect=fixed;perimeter=ellipsePerimeter;html=1;align=center;shadow=0;dashed=0;image;image=img/lib/ibm/management/process_management.svg;labelBackgroundColor=default;strokeColor=#666666;strokeWidth=3;fillColor=#C2952D;gradientColor=none;fontSize=18;fontColor=#4277BB;fontStyle=1;spacing=5;" parent="3MZQSqIQG4tGznweeyOq-1" vertex="1">
          <mxGeometry x="794" y="556" width="60" height="60" as="geometry" />
        </mxCell>
        <mxCell id="3MZQSqIQG4tGznweeyOq-68" value="模型数据加载" style="aspect=fixed;perimeter=ellipsePerimeter;html=1;align=center;shadow=0;dashed=0;image;image=img/lib/ibm/data/data_services.svg;labelBackgroundColor=default;strokeColor=#666666;strokeWidth=3;fillColor=#C2952D;gradientColor=none;fontSize=18;fontColor=#4277BB;spacingTop=3;fontStyle=1" parent="3MZQSqIQG4tGznweeyOq-1" vertex="1">
          <mxGeometry x="892" y="556" width="60" height="60" as="geometry" />
        </mxCell>
        <mxCell id="3MZQSqIQG4tGznweeyOq-69" value="数据存取" style="aspect=fixed;perimeter=ellipsePerimeter;html=1;align=center;shadow=0;dashed=0;image;image=img/lib/ibm/infrastructure/transformation_connectivity.svg;labelBackgroundColor=default;strokeColor=#666666;strokeWidth=3;fillColor=#C2952D;gradientColor=none;fontSize=18;fontColor=#4277BB;spacingTop=3;fontStyle=1" parent="3MZQSqIQG4tGznweeyOq-1" vertex="1">
          <mxGeometry x="955" y="296" width="60" height="60" as="geometry" />
        </mxCell>
        <mxCell id="3MZQSqIQG4tGznweeyOq-70" value="模型推理数据" style="aspect=fixed;perimeter=ellipsePerimeter;html=1;align=center;shadow=0;dashed=0;image;image=img/lib/ibm/data/enterprise_user_directory.svg;labelBackgroundColor=default;strokeColor=#666666;strokeWidth=3;fillColor=#C2952D;gradientColor=none;fontSize=18;fontColor=#4277BB;fontStyle=1" parent="3MZQSqIQG4tGznweeyOq-1" vertex="1">
          <mxGeometry x="1082" y="176" width="60" height="60" as="geometry" />
        </mxCell>
        <mxCell id="3MZQSqIQG4tGznweeyOq-71" value="模型训练数据" style="aspect=fixed;perimeter=ellipsePerimeter;html=1;align=center;shadow=0;dashed=0;image;image=img/lib/ibm/data/enterprise_data.svg;labelBackgroundColor=default;strokeColor=#666666;strokeWidth=3;fillColor=#C2952D;gradientColor=none;fontSize=18;fontColor=#4277BB;fontStyle=1" parent="3MZQSqIQG4tGznweeyOq-1" vertex="1">
          <mxGeometry x="1082" y="296" width="60" height="60" as="geometry" />
        </mxCell>
        <mxCell id="3MZQSqIQG4tGznweeyOq-72" value="数据生成/扩展" style="aspect=fixed;perimeter=ellipsePerimeter;html=1;align=center;shadow=0;dashed=0;image;image=img/lib/ibm/applications/enterprise_applications.svg;labelBackgroundColor=default;strokeColor=#666666;strokeWidth=3;fillColor=#C2952D;gradientColor=none;fontSize=18;fontColor=#4277BB;fontStyle=1" parent="3MZQSqIQG4tGznweeyOq-1" vertex="1">
          <mxGeometry x="1082" y="416" width="60" height="60" as="geometry" />
        </mxCell>
        <mxCell id="3MZQSqIQG4tGznweeyOq-73" value="" style="line;strokeWidth=3;direction=south;html=1;shadow=0;labelBackgroundColor=default;fillColor=none;gradientColor=none;fontSize=18;fontColor=#4277BB;align=right;strokeColor=#4277BB;fontStyle=1" parent="3MZQSqIQG4tGznweeyOq-1" vertex="1">
          <mxGeometry x="237" width="10" height="180" as="geometry" />
        </mxCell>
        <mxCell id="3MZQSqIQG4tGznweeyOq-74" value="" style="line;strokeWidth=3;direction=south;html=1;shadow=0;labelBackgroundColor=default;fillColor=none;gradientColor=none;fontSize=18;fontColor=#4277BB;align=right;strokeColor=#4277BB;fontStyle=1" parent="3MZQSqIQG4tGznweeyOq-1" vertex="1">
          <mxGeometry x="440" width="10" height="180" as="geometry" />
        </mxCell>
        <mxCell id="3MZQSqIQG4tGznweeyOq-75" value="" style="line;strokeWidth=3;direction=south;html=1;shadow=0;labelBackgroundColor=default;fillColor=none;gradientColor=none;fontSize=18;fontColor=#4277BB;align=right;strokeColor=#4277BB;fontStyle=1" parent="3MZQSqIQG4tGznweeyOq-1" vertex="1">
          <mxGeometry x="440" y="210" width="10" height="100" as="geometry" />
        </mxCell>
        <mxCell id="3MZQSqIQG4tGznweeyOq-76" value="" style="line;strokeWidth=3;direction=south;html=1;shadow=0;labelBackgroundColor=default;fillColor=none;gradientColor=none;fontSize=18;fontColor=#4277BB;align=right;strokeColor=#4277BB;fontStyle=1" parent="3MZQSqIQG4tGznweeyOq-1" vertex="1">
          <mxGeometry x="980" y="400" width="10" height="420" as="geometry" />
        </mxCell>
        <mxCell id="3MZQSqIQG4tGznweeyOq-77" value="" style="line;strokeWidth=3;direction=south;html=1;shadow=0;labelBackgroundColor=default;fillColor=none;gradientColor=none;fontSize=18;fontColor=#4277BB;align=right;strokeColor=#4277BB;fontStyle=1" parent="3MZQSqIQG4tGznweeyOq-1" vertex="1">
          <mxGeometry x="440" y="430" width="10" height="280" as="geometry" />
        </mxCell>
        <mxCell id="3MZQSqIQG4tGznweeyOq-78" value="" style="line;strokeWidth=3;direction=south;html=1;shadow=0;labelBackgroundColor=default;fillColor=none;gradientColor=none;fontSize=18;fontColor=#4277BB;align=right;strokeColor=#4277BB;fontStyle=1" parent="3MZQSqIQG4tGznweeyOq-1" vertex="1">
          <mxGeometry x="237" y="206" width="10" height="134" as="geometry" />
        </mxCell>
        <mxCell id="3MZQSqIQG4tGznweeyOq-79" value="" style="line;strokeWidth=3;direction=south;html=1;shadow=0;labelBackgroundColor=default;fillColor=none;gradientColor=none;fontSize=18;fontColor=#4277BB;align=right;strokeColor=#4277BB;fontStyle=1" parent="3MZQSqIQG4tGznweeyOq-1" vertex="1">
          <mxGeometry x="237" y="365" width="10" height="65" as="geometry" />
        </mxCell>
        <mxCell id="3MZQSqIQG4tGznweeyOq-80" value="" style="line;strokeWidth=3;direction=south;html=1;shadow=0;labelBackgroundColor=default;fillColor=none;gradientColor=none;fontSize=18;fontColor=#4277BB;align=right;strokeColor=#4277BB;fontStyle=1" parent="3MZQSqIQG4tGznweeyOq-1" vertex="1">
          <mxGeometry x="237" y="471" width="10" height="349" as="geometry" />
        </mxCell>
        <mxCell id="3MZQSqIQG4tGznweeyOq-81" value="&lt;div&gt;HPC 集群&lt;/div&gt;" style="text;html=1;align=center;verticalAlign=top;fontColor=#4277BB;shadow=0;dashed=0;strokeColor=none;fillColor=none;labelBackgroundColor=default;fontStyle=1;fontSize=18;spacingLeft=5;strokeWidth=3;" parent="3MZQSqIQG4tGznweeyOq-1" vertex="1">
          <mxGeometry x="247" y="1" width="193" height="49" as="geometry" />
        </mxCell>
        <mxCell id="3MZQSqIQG4tGznweeyOq-82" value="模型抽象层 &amp;amp; 评估执行层" style="text;html=1;align=center;verticalAlign=top;fontColor=#4277BB;shadow=0;dashed=0;strokeColor=none;fillColor=none;labelBackgroundColor=default;fontStyle=1;fontSize=18;spacingLeft=5;strokeWidth=3;" parent="3MZQSqIQG4tGznweeyOq-1" vertex="1">
          <mxGeometry x="610" y="1" width="217" height="20" as="geometry" />
        </mxCell>
        <mxCell id="3MZQSqIQG4tGznweeyOq-83" value="" style="swimlane;shadow=0;strokeColor=#4277BB;fillColor=#ffffff;fontColor=#4277BB;align=right;startSize=0;collapsible=0;strokeWidth=3;fontStyle=1;labelBackgroundColor=default;fontSize=18;" parent="3MZQSqIQG4tGznweeyOq-1" vertex="1">
          <mxGeometry x="378" y="710" width="574" height="90" as="geometry" />
        </mxCell>
        <mxCell id="3MZQSqIQG4tGznweeyOq-84" value="计算节点&lt;div&gt;操作权限&lt;/div&gt;" style="aspect=fixed;perimeter=ellipsePerimeter;html=1;align=left;shadow=0;dashed=0;image;image=img/lib/ibm/blockchain/certificate_authority.svg;labelBackgroundColor=default;strokeColor=#666666;strokeWidth=3;fillColor=#C2952D;gradientColor=none;fontSize=18;fontColor=#4277BB;labelPosition=right;verticalLabelPosition=middle;verticalAlign=middle;fontStyle=1" parent="3MZQSqIQG4tGznweeyOq-83" vertex="1">
          <mxGeometry x="57" y="17" width="60" height="60" as="geometry" />
        </mxCell>
        <mxCell id="3MZQSqIQG4tGznweeyOq-85" value="SSH 用户&lt;div&gt;权限管理&lt;/div&gt;" style="aspect=fixed;perimeter=ellipsePerimeter;html=1;align=left;shadow=0;dashed=0;image;image=img/lib/ibm/management/information_governance.svg;labelBackgroundColor=default;strokeColor=#666666;strokeWidth=3;fillColor=#C2952D;gradientColor=none;fontSize=18;fontColor=#4277BB;labelPosition=right;verticalLabelPosition=middle;verticalAlign=middle;fontStyle=1" parent="3MZQSqIQG4tGznweeyOq-83" vertex="1">
          <mxGeometry x="377" y="17" width="60" height="60" as="geometry" />
        </mxCell>
        <mxCell id="3MZQSqIQG4tGznweeyOq-86" style="edgeStyle=orthogonalEdgeStyle;rounded=0;html=1;labelBackgroundColor=default;startArrow=classic;startFill=1;startSize=4;endArrow=classic;endFill=1;endSize=4;jettySize=auto;orthogonalLoop=1;strokeColor=#4277BB;strokeWidth=3;fontSize=18;fontColor=#4277BB;fontStyle=1;exitX=1;exitY=0.5;exitDx=0;exitDy=0;entryX=1;entryY=0.5;entryDx=0;entryDy=0;" parent="3MZQSqIQG4tGznweeyOq-1" source="3MZQSqIQG4tGznweeyOq-72" target="3MZQSqIQG4tGznweeyOq-70" edge="1">
          <mxGeometry relative="1" as="geometry">
            <mxPoint x="1142" y="445.76" as="sourcePoint" />
            <mxPoint x="1209" y="445.76" as="targetPoint" />
            <Array as="points">
              <mxPoint x="1190" y="446" />
              <mxPoint x="1190" y="206" />
            </Array>
          </mxGeometry>
        </mxCell>
        <mxCell id="3MZQSqIQG4tGznweeyOq-87" style="rounded=0;html=1;labelBackgroundColor=default;startArrow=classic;startFill=1;startSize=4;endArrow=classic;endFill=1;endSize=4;jettySize=auto;orthogonalLoop=1;strokeColor=#4277BB;strokeWidth=3;fontSize=18;fontColor=#4277BB;fontStyle=1;entryX=1;entryY=0.5;entryDx=0;entryDy=0;edgeStyle=orthogonalEdgeStyle;" parent="3MZQSqIQG4tGznweeyOq-1" source="3MZQSqIQG4tGznweeyOq-72" target="3MZQSqIQG4tGznweeyOq-71" edge="1">
          <mxGeometry relative="1" as="geometry">
            <mxPoint x="1133" y="476" as="sourcePoint" />
            <mxPoint x="1200" y="476" as="targetPoint" />
            <Array as="points">
              <mxPoint x="1170" y="430" />
              <mxPoint x="1170" y="326" />
            </Array>
          </mxGeometry>
        </mxCell>
        <mxCell id="3MZQSqIQG4tGznweeyOq-88" value="SSH" style="aspect=fixed;perimeter=ellipsePerimeter;html=1;align=center;shadow=0;dashed=0;image;image=img/lib/ibm/users/physical_entity.svg;labelBackgroundColor=default;strokeColor=#666666;strokeWidth=3;fillColor=#C2952D;gradientColor=none;fontSize=18;fontColor=#4277BB;spacingTop=3;fontStyle=1" parent="1" vertex="1">
          <mxGeometry x="196" y="100" width="60" height="60" as="geometry" />
        </mxCell>
        <mxCell id="3MZQSqIQG4tGznweeyOq-89" style="edgeStyle=orthogonalEdgeStyle;rounded=0;html=1;labelBackgroundColor=default;startArrow=classic;startFill=0;startSize=4;endArrow=classic;endFill=1;endSize=4;jettySize=auto;orthogonalLoop=1;strokeColor=#EEC11B;strokeWidth=3;fontSize=18;fontColor=#4277BB;fontStyle=1;entryX=-0.022;entryY=0.503;entryDx=0;entryDy=0;entryPerimeter=0;" parent="1" source="3MZQSqIQG4tGznweeyOq-54" target="3MZQSqIQG4tGznweeyOq-88" edge="1">
          <mxGeometry relative="1" as="geometry">
            <mxPoint x="190" y="130" as="targetPoint" />
            <Array as="points" />
          </mxGeometry>
        </mxCell>
      </root>
    </mxGraphModel>
  </diagram>
  <diagram id="S_4F-88A-J0EM6gW6Ywc" name="Page-5">
    <mxGraphModel dx="1807" dy="996" grid="1" gridSize="10" guides="1" tooltips="1" connect="1" arrows="1" fold="1" page="1" pageScale="1" pageWidth="960" pageHeight="480" math="0" shadow="0">
      <root>
        <mxCell id="0" />
        <mxCell id="1" parent="0" />
        <mxCell id="G4KunqtY-27znI6xuVti-1" value="&lt;font style=&quot;font-size: 25px; color: rgb(100, 50, 0);&quot;&gt;通用性能指标&lt;/font&gt;" style="html=1;fontColor=#143642;fontStyle=1;align=left;verticalAlign=top;spacing=0;labelBorderColor=none;fillColor=none;dashed=1;strokeWidth=3;strokeColor=default;spacingLeft=4;spacingTop=-3;fontSize=18;labelBackgroundColor=none;" vertex="1" parent="1">
          <mxGeometry x="10" y="50" width="360" height="420" as="geometry" />
        </mxCell>
        <mxCell id="G4KunqtY-27znI6xuVti-2" value="&lt;font style=&quot;font-size: 25px; color: rgb(9, 81, 82);&quot;&gt;LLM 性能指标&lt;/font&gt;" style="html=1;fontColor=#143642;fontStyle=1;align=left;verticalAlign=top;spacing=0;labelBorderColor=none;fillColor=none;dashed=1;strokeWidth=3;strokeColor=#0F8B8D;spacingLeft=4;spacingTop=-3;fontSize=18;labelBackgroundColor=none;" vertex="1" parent="1">
          <mxGeometry x="384" y="50" width="270" height="420" as="geometry" />
        </mxCell>
        <mxCell id="G4KunqtY-27znI6xuVti-3" value="&lt;font style=&quot;font-size: 25px; color: rgb(0, 0, 125);&quot;&gt;CNN 性能指标&lt;/font&gt;" style="html=1;fontColor=#143642;fontStyle=1;align=left;verticalAlign=top;spacing=0;labelBorderColor=none;fillColor=none;dashed=1;strokeWidth=3;strokeColor=#000069;spacingLeft=4;spacingTop=-3;fontSize=18;labelBackgroundColor=none;" vertex="1" parent="1">
          <mxGeometry x="667" y="50" width="280" height="420" as="geometry" />
        </mxCell>
        <UserObject label="数据加载带宽比" placeholders="1" name="Variable" id="G4KunqtY-27znI6xuVti-4">
          <mxCell style="text;html=1;strokeColor=#29347D;fillColor=#F6FAFF;align=center;verticalAlign=middle;whiteSpace=wrap;overflow=hidden;shadow=1;fontSize=22;fontStyle=1;strokeWidth=3;labelBackgroundColor=none;fontColor=#143642;" vertex="1" parent="1">
            <mxGeometry x="682" y="370" width="250" height="76" as="geometry" />
          </mxCell>
        </UserObject>
        <UserObject label="&lt;span&gt;RT(端到端时延)&lt;/span&gt;" placeholders="1" name="Variable" id="G4KunqtY-27znI6xuVti-5">
          <mxCell style="text;html=1;strokeColor=#7D3E00;fillColor=#FFF3F2;align=center;verticalAlign=middle;whiteSpace=wrap;overflow=hidden;shadow=1;fontSize=22;fontStyle=1;strokeWidth=3;labelBackgroundColor=none;fontColor=#143642;" vertex="1" parent="1">
            <mxGeometry x="25" y="94" width="330" height="50" as="geometry" />
          </mxCell>
        </UserObject>
        <UserObject label="&lt;span&gt;GPU/CPU 利用率&lt;/span&gt;" placeholders="1" name="Variable" id="G4KunqtY-27znI6xuVti-6">
          <mxCell style="text;html=1;strokeColor=#7D3E00;fillColor=#FFF3F2;align=center;verticalAlign=middle;whiteSpace=wrap;overflow=hidden;shadow=1;fontSize=22;fontStyle=1;strokeWidth=3;labelBackgroundColor=none;fontColor=#143642;" vertex="1" parent="1">
            <mxGeometry x="25" y="154" width="330" height="50" as="geometry" />
          </mxCell>
        </UserObject>
        <UserObject label="&lt;span&gt;GPU 加速比&lt;/span&gt;" placeholders="1" name="Variable" id="G4KunqtY-27znI6xuVti-7">
          <mxCell style="text;html=1;strokeColor=#7D3E00;fillColor=#FFF3F2;align=center;verticalAlign=middle;whiteSpace=wrap;overflow=hidden;shadow=1;fontSize=22;fontStyle=1;strokeWidth=3;labelBackgroundColor=none;fontColor=#143642;" vertex="1" parent="1">
            <mxGeometry x="25" y="214" width="330" height="50" as="geometry" />
          </mxCell>
        </UserObject>
        <UserObject label="FLOPs(系统吞吐量)" placeholders="1" name="Variable" id="G4KunqtY-27znI6xuVti-8">
          <mxCell style="text;html=1;strokeColor=#7D3E00;fillColor=#FFF3F2;align=center;verticalAlign=middle;whiteSpace=wrap;overflow=hidden;shadow=1;fontSize=22;fontStyle=1;strokeWidth=3;labelBackgroundColor=none;fontColor=#143642;" vertex="1" parent="1">
            <mxGeometry x="25" y="274" width="330" height="50" as="geometry" />
          </mxCell>
        </UserObject>
        <UserObject label="显存占用" placeholders="1" name="Variable" id="G4KunqtY-27znI6xuVti-9">
          <mxCell style="text;html=1;strokeColor=#7D3E00;fillColor=#FFF3F2;align=center;verticalAlign=middle;whiteSpace=wrap;overflow=hidden;shadow=1;fontSize=22;fontStyle=1;strokeWidth=3;labelBackgroundColor=none;fontColor=#143642;" vertex="1" parent="1">
            <mxGeometry x="25" y="334" width="330" height="50" as="geometry" />
          </mxCell>
        </UserObject>
        <UserObject label="系统稳定性(长时间运行下)" placeholders="1" name="Variable" id="G4KunqtY-27znI6xuVti-10">
          <mxCell style="text;html=1;strokeColor=#7D3E00;fillColor=#FFF3F2;align=center;verticalAlign=middle;whiteSpace=wrap;overflow=hidden;shadow=1;fontSize=22;fontStyle=1;strokeWidth=3;labelBackgroundColor=none;fontColor=#143642;" vertex="1" parent="1">
            <mxGeometry x="25" y="394" width="330" height="50" as="geometry" />
          </mxCell>
        </UserObject>
        <UserObject label="上下文长度扩展效率" placeholders="1" name="Variable" id="G4KunqtY-27znI6xuVti-11">
          <mxCell style="text;html=1;strokeColor=#074546;fillColor=#F8FFF6;align=center;verticalAlign=middle;whiteSpace=wrap;overflow=hidden;shadow=1;fontSize=22;fontStyle=1;strokeWidth=3;labelBackgroundColor=none;fontColor=#143642;" vertex="1" parent="1">
            <mxGeometry x="394" y="94" width="250" height="76" as="geometry" />
          </mxCell>
        </UserObject>
        <UserObject label="生成速度波动系数" placeholders="1" name="Variable" id="G4KunqtY-27znI6xuVti-12">
          <mxCell style="text;html=1;strokeColor=#074546;fillColor=#F8FFF6;align=center;verticalAlign=middle;whiteSpace=wrap;overflow=hidden;shadow=1;fontSize=22;fontStyle=1;strokeWidth=3;labelBackgroundColor=none;fontColor=#143642;" vertex="1" parent="1">
            <mxGeometry x="394" y="186" width="250" height="76" as="geometry" />
          </mxCell>
        </UserObject>
        <UserObject label="注意力计算占比" placeholders="1" name="Variable" id="G4KunqtY-27znI6xuVti-13">
          <mxCell style="text;html=1;strokeColor=#074546;fillColor=#F8FFF6;align=center;verticalAlign=middle;whiteSpace=wrap;overflow=hidden;shadow=1;fontSize=22;fontStyle=1;strokeWidth=3;labelBackgroundColor=none;fontColor=#143642;" vertex="1" parent="1">
            <mxGeometry x="394" y="278" width="250" height="76" as="geometry" />
          </mxCell>
        </UserObject>
        <UserObject label="断点恢复开销" placeholders="1" name="Variable" id="G4KunqtY-27znI6xuVti-14">
          <mxCell style="text;html=1;strokeColor=#074546;fillColor=#F8FFF6;align=center;verticalAlign=middle;whiteSpace=wrap;overflow=hidden;shadow=1;fontSize=22;fontStyle=1;strokeWidth=3;labelBackgroundColor=none;fontColor=#143642;" vertex="1" parent="1">
            <mxGeometry x="394" y="370" width="250" height="76" as="geometry" />
          </mxCell>
        </UserObject>
        <UserObject label="输入缩放鲁棒性" placeholders="1" name="Variable" id="G4KunqtY-27znI6xuVti-15">
          <mxCell style="text;html=1;strokeColor=#29347D;fillColor=#F6FAFF;align=center;verticalAlign=middle;whiteSpace=wrap;overflow=hidden;shadow=1;fontSize=22;fontStyle=1;strokeWidth=3;labelBackgroundColor=none;fontColor=#143642;" vertex="1" parent="1">
            <mxGeometry x="682" y="94" width="250" height="76" as="geometry" />
          </mxCell>
        </UserObject>
        <UserObject label="批归一化开销" placeholders="1" name="Variable" id="G4KunqtY-27znI6xuVti-16">
          <mxCell style="text;html=1;strokeColor=#29347D;fillColor=#F6FAFF;align=center;verticalAlign=middle;whiteSpace=wrap;overflow=hidden;shadow=1;fontSize=22;fontStyle=1;strokeWidth=3;labelBackgroundColor=none;fontColor=#143642;" vertex="1" parent="1">
            <mxGeometry x="682" y="186" width="250" height="76" as="geometry" />
          </mxCell>
        </UserObject>
        <UserObject label="梯度同步延迟比" placeholders="1" name="Variable" id="G4KunqtY-27znI6xuVti-17">
          <mxCell style="text;html=1;strokeColor=#29347D;fillColor=#F6FAFF;align=center;verticalAlign=middle;whiteSpace=wrap;overflow=hidden;shadow=1;fontSize=22;fontStyle=1;strokeWidth=3;labelBackgroundColor=none;fontColor=#143642;" vertex="1" parent="1">
            <mxGeometry x="682" y="278" width="250" height="76" as="geometry" />
          </mxCell>
        </UserObject>
        <mxCell id="G4KunqtY-27znI6xuVti-18" value="Step 1" style="shape=step;perimeter=stepPerimeter;fixedSize=1;points=[];whiteSpace=wrap;html=1;strokeColor=#073838;fontColor=#143642;fillColor=#FAE5C7;strokeWidth=3;fontSize=18;" vertex="1" parent="1">
          <mxGeometry x="10" y="10" width="367" height="30" as="geometry" />
        </mxCell>
        <mxCell id="G4KunqtY-27znI6xuVti-19" value="Step 1" style="shape=step;perimeter=stepPerimeter;fixedSize=1;points=[];whiteSpace=wrap;html=1;strokeColor=#073838;fontColor=#143642;fillColor=#FAE5C7;strokeWidth=3;fontSize=18;" vertex="1" parent="1">
          <mxGeometry x="370" y="10" width="297" height="30" as="geometry" />
        </mxCell>
        <mxCell id="G4KunqtY-27znI6xuVti-20" value="计算机视觉任务" style="shape=step;perimeter=stepPerimeter;fixedSize=1;points=[];whiteSpace=wrap;html=1;strokeColor=#0A5252;fontColor=#143642;fillColor=#F9F9FA;strokeWidth=3;fontSize=18;fontStyle=1" vertex="1" parent="1">
          <mxGeometry x="658.5" y="10" width="288.5" height="30" as="geometry" />
        </mxCell>
        <mxCell id="G4KunqtY-27znI6xuVti-21" value="HPC-AI 系统一般指标" style="shape=step;perimeter=stepPerimeter;fixedSize=1;points=[];whiteSpace=wrap;html=1;strokeColor=#0A5252;fontColor=#143642;fillColor=#F9F9FA;strokeWidth=3;fontSize=18;fontStyle=1" vertex="1" parent="1">
          <mxGeometry x="10" y="10" width="367" height="30" as="geometry" />
        </mxCell>
        <mxCell id="G4KunqtY-27znI6xuVti-22" value="自然语言处理任务" style="shape=step;perimeter=stepPerimeter;fixedSize=1;points=[];whiteSpace=wrap;html=1;strokeColor=#0A5252;fontColor=#143642;fillColor=#F9F9FA;strokeWidth=3;fontSize=18;fontStyle=1" vertex="1" parent="1">
          <mxGeometry x="370" y="10" width="297" height="30" as="geometry" />
        </mxCell>
      </root>
    </mxGraphModel>
  </diagram>
  <diagram id="OaDMS2m58arlrn4E-b1c" name="第 6 页">
    <mxGraphModel dx="1464" dy="814" grid="1" gridSize="10" guides="1" tooltips="1" connect="1" arrows="1" fold="1" page="1" pageScale="1" pageWidth="420" pageHeight="180" math="0" shadow="0">
      <root>
        <mxCell id="0" />
        <mxCell id="1" parent="0" />
        <mxCell id="vbHa7b0eRuLoPrZNxXsy-1" value="源端口" style="rounded=0;whiteSpace=wrap;html=1;glass=1;fillColor=none;strokeWidth=2;strokeColor=#006600;fontSize=8;fontStyle=1" parent="1" vertex="1">
          <mxGeometry x="-370" y="-140" width="160" height="20" as="geometry" />
        </mxCell>
        <mxCell id="vbHa7b0eRuLoPrZNxXsy-2" value="目的端口" style="rounded=0;whiteSpace=wrap;html=1;glass=1;fillColor=none;strokeWidth=2;strokeColor=#006600;fontSize=8;fontStyle=1" parent="1" vertex="1">
          <mxGeometry x="-210" y="-140" width="160" height="20" as="geometry" />
        </mxCell>
        <mxCell id="vbHa7b0eRuLoPrZNxXsy-3" value="序列号" style="rounded=0;whiteSpace=wrap;html=1;glass=1;fillColor=none;strokeWidth=2;strokeColor=#006600;fontSize=8;fontStyle=1" parent="1" vertex="1">
          <mxGeometry x="-370" y="-120" width="320" height="20" as="geometry" />
        </mxCell>
        <mxCell id="vbHa7b0eRuLoPrZNxXsy-4" value="确认号" style="rounded=0;whiteSpace=wrap;html=1;glass=1;fillColor=none;strokeWidth=2;strokeColor=#006600;fontSize=8;fontStyle=1" parent="1" vertex="1">
          <mxGeometry x="-370" y="-100" width="320" height="20" as="geometry" />
        </mxCell>
        <mxCell id="vbHa7b0eRuLoPrZNxXsy-5" value="窗口" style="rounded=0;whiteSpace=wrap;html=1;glass=1;fillColor=none;strokeWidth=2;strokeColor=#006600;fontSize=8;fontStyle=1" parent="1" vertex="1">
          <mxGeometry x="-210" y="-80" width="160" height="20" as="geometry" />
        </mxCell>
        <mxCell id="vbHa7b0eRuLoPrZNxXsy-6" value="数据偏移" style="rounded=0;whiteSpace=wrap;html=1;glass=1;fillColor=none;strokeWidth=2;strokeColor=#006600;fontSize=8;fontStyle=1" parent="1" vertex="1">
          <mxGeometry x="-370" y="-80" width="40" height="20" as="geometry" />
        </mxCell>
        <mxCell id="vbHa7b0eRuLoPrZNxXsy-7" value="保留" style="rounded=0;whiteSpace=wrap;html=1;glass=1;fillColor=none;strokeWidth=2;strokeColor=#006600;fontSize=8;fontStyle=1" parent="1" vertex="1">
          <mxGeometry x="-330" y="-80" width="60" height="20" as="geometry" />
        </mxCell>
        <mxCell id="vbHa7b0eRuLoPrZNxXsy-8" value="U&lt;div&gt;R&lt;/div&gt;&lt;div&gt;G&lt;/div&gt;" style="rounded=0;whiteSpace=wrap;html=1;glass=1;fillColor=none;strokeWidth=2;strokeColor=#006600;fontSize=5;fontStyle=1;spacing=2;" parent="1" vertex="1">
          <mxGeometry x="-270" y="-80" width="10" height="20" as="geometry" />
        </mxCell>
        <mxCell id="vbHa7b0eRuLoPrZNxXsy-9" value="A&lt;div&gt;C&lt;/div&gt;&lt;div&gt;K&lt;/div&gt;" style="rounded=0;whiteSpace=wrap;html=1;glass=1;fillColor=none;strokeWidth=2;strokeColor=#006600;fontSize=5;fontStyle=1;spacing=2;" parent="1" vertex="1">
          <mxGeometry x="-260" y="-80" width="10" height="20" as="geometry" />
        </mxCell>
        <mxCell id="vbHa7b0eRuLoPrZNxXsy-10" value="P&lt;div&gt;S&lt;/div&gt;&lt;div&gt;H&lt;/div&gt;" style="rounded=0;whiteSpace=wrap;html=1;glass=1;fillColor=none;strokeWidth=2;strokeColor=#006600;fontSize=5;fontStyle=1;spacing=2;" parent="1" vertex="1">
          <mxGeometry x="-250" y="-80" width="10" height="20" as="geometry" />
        </mxCell>
        <mxCell id="vbHa7b0eRuLoPrZNxXsy-11" value="R&lt;div&gt;S&lt;/div&gt;&lt;div&gt;T&lt;/div&gt;" style="rounded=0;whiteSpace=wrap;html=1;glass=1;fillColor=none;strokeWidth=2;strokeColor=#006600;fontSize=5;fontStyle=1;spacing=2;" parent="1" vertex="1">
          <mxGeometry x="-240" y="-80" width="10" height="20" as="geometry" />
        </mxCell>
        <mxCell id="vbHa7b0eRuLoPrZNxXsy-12" value="S&lt;div&gt;Y&lt;/div&gt;&lt;div&gt;N&lt;/div&gt;" style="rounded=0;whiteSpace=wrap;html=1;glass=1;fillColor=none;strokeWidth=2;strokeColor=#006600;fontSize=5;fontStyle=1;spacing=2;" parent="1" vertex="1">
          <mxGeometry x="-230" y="-80" width="10" height="20" as="geometry" />
        </mxCell>
        <mxCell id="vbHa7b0eRuLoPrZNxXsy-13" value="F&lt;div&gt;I&lt;/div&gt;&lt;div&gt;N&lt;/div&gt;" style="rounded=0;whiteSpace=wrap;html=1;glass=1;fillColor=none;strokeWidth=2;strokeColor=#006600;fontSize=5;fontStyle=1;spacing=2;" parent="1" vertex="1">
          <mxGeometry x="-220" y="-80" width="10" height="20" as="geometry" />
        </mxCell>
        <mxCell id="vbHa7b0eRuLoPrZNxXsy-14" value="检验和" style="rounded=0;whiteSpace=wrap;html=1;glass=1;fillColor=none;strokeWidth=2;strokeColor=#006600;fontSize=8;fontStyle=1" parent="1" vertex="1">
          <mxGeometry x="-370" y="-60" width="160" height="20" as="geometry" />
        </mxCell>
        <mxCell id="vbHa7b0eRuLoPrZNxXsy-15" value="紧急指针" style="rounded=0;whiteSpace=wrap;html=1;glass=1;fillColor=none;strokeWidth=2;strokeColor=#006600;fontSize=8;fontStyle=1" parent="1" vertex="1">
          <mxGeometry x="-210" y="-60" width="160" height="20" as="geometry" />
        </mxCell>
        <mxCell id="vbHa7b0eRuLoPrZNxXsy-16" value="检验和" style="rounded=0;whiteSpace=wrap;html=1;glass=1;fillColor=none;strokeWidth=2;strokeColor=#006600;fontSize=8;fontStyle=1" parent="1" vertex="1">
          <mxGeometry x="-130" y="-40" width="80" height="20" as="geometry" />
        </mxCell>
        <mxCell id="vbHa7b0eRuLoPrZNxXsy-17" value="选项(长度可变)" style="rounded=0;whiteSpace=wrap;html=1;glass=1;fillColor=none;strokeWidth=2;strokeColor=#006600;fontSize=8;fontStyle=1" parent="1" vertex="1">
          <mxGeometry x="-370" y="-40" width="240" height="20" as="geometry" />
        </mxCell>
        <mxCell id="vbHa7b0eRuLoPrZNxXsy-19" value="&lt;b&gt;TCP&lt;/b&gt;&lt;div&gt;&lt;b&gt;Header&lt;/b&gt;&lt;/div&gt;" style="endArrow=open;startArrow=open;html=1;rounded=0;startFill=0;endFill=0;strokeColor=#A4A400;strokeWidth=2;dashed=1;labelBackgroundColor=none;fontSize=9;" parent="1" edge="1">
          <mxGeometry width="50" height="50" relative="1" as="geometry">
            <mxPoint x="-400" y="-20" as="sourcePoint" />
            <mxPoint x="-400" y="-140" as="targetPoint" />
          </mxGeometry>
        </mxCell>
        <mxCell id="vbHa7b0eRuLoPrZNxXsy-20" value="&lt;b&gt;&lt;font&gt;32 bit&lt;/font&gt;&lt;/b&gt;" style="endArrow=open;startArrow=open;html=1;rounded=0;startFill=0;endFill=0;strokeColor=#A4A400;strokeWidth=2;dashed=1;labelBackgroundColor=none;fontSize=9;" parent="1" edge="1">
          <mxGeometry width="50" height="50" relative="1" as="geometry">
            <mxPoint x="-370" y="-150" as="sourcePoint" />
            <mxPoint x="-50" y="-150" as="targetPoint" />
          </mxGeometry>
        </mxCell>
        <mxCell id="vbHa7b0eRuLoPrZNxXsy-21" value="" style="endArrow=none;html=1;rounded=0;exitX=0;exitY=0;exitDx=0;exitDy=0;strokeWidth=2;strokeColor=#006600;" parent="1" source="vbHa7b0eRuLoPrZNxXsy-1" edge="1">
          <mxGeometry width="50" height="50" relative="1" as="geometry">
            <mxPoint x="-410" y="-140" as="sourcePoint" />
            <mxPoint x="-370" y="-160" as="targetPoint" />
          </mxGeometry>
        </mxCell>
        <mxCell id="vbHa7b0eRuLoPrZNxXsy-22" value="" style="endArrow=none;html=1;rounded=0;exitX=0;exitY=0;exitDx=0;exitDy=0;strokeWidth=2;strokeColor=#006600;" parent="1" edge="1">
          <mxGeometry width="50" height="50" relative="1" as="geometry">
            <mxPoint x="-50" y="-140" as="sourcePoint" />
            <mxPoint x="-50" y="-160" as="targetPoint" />
          </mxGeometry>
        </mxCell>
        <mxCell id="vbHa7b0eRuLoPrZNxXsy-23" value="" style="endArrow=none;html=1;rounded=0;exitX=0;exitY=0;exitDx=0;exitDy=0;strokeWidth=2;strokeColor=#006600;" parent="1" edge="1">
          <mxGeometry width="50" height="50" relative="1" as="geometry">
            <mxPoint x="-50" y="-140" as="sourcePoint" />
            <mxPoint x="-10" y="-140" as="targetPoint" />
            <Array as="points">
              <mxPoint x="-50" y="-140" />
            </Array>
          </mxGeometry>
        </mxCell>
        <mxCell id="vbHa7b0eRuLoPrZNxXsy-24" value="" style="endArrow=none;html=1;rounded=0;exitX=0;exitY=0;exitDx=0;exitDy=0;strokeWidth=2;strokeColor=#006600;" parent="1" edge="1">
          <mxGeometry width="50" height="50" relative="1" as="geometry">
            <mxPoint x="-50" y="-40" as="sourcePoint" />
            <mxPoint x="-10" y="-40" as="targetPoint" />
            <Array as="points">
              <mxPoint x="-50" y="-40" />
            </Array>
          </mxGeometry>
        </mxCell>
        <mxCell id="vbHa7b0eRuLoPrZNxXsy-25" value="" style="endArrow=none;html=1;rounded=0;exitX=0;exitY=0;exitDx=0;exitDy=0;strokeWidth=2;strokeColor=#006600;" parent="1" edge="1">
          <mxGeometry width="50" height="50" relative="1" as="geometry">
            <mxPoint x="-390" y="-20" as="sourcePoint" />
            <mxPoint x="-370" y="-20" as="targetPoint" />
            <Array as="points">
              <mxPoint x="-410" y="-20" />
              <mxPoint x="-390" y="-20" />
            </Array>
          </mxGeometry>
        </mxCell>
        <mxCell id="vbHa7b0eRuLoPrZNxXsy-28" value="" style="endArrow=none;html=1;rounded=0;exitX=0;exitY=0;exitDx=0;exitDy=0;strokeWidth=2;strokeColor=#006600;" parent="1" edge="1">
          <mxGeometry width="50" height="50" relative="1" as="geometry">
            <mxPoint x="-390" y="-140" as="sourcePoint" />
            <mxPoint x="-370" y="-140" as="targetPoint" />
            <Array as="points">
              <mxPoint x="-410" y="-140" />
              <mxPoint x="-390" y="-140" />
            </Array>
          </mxGeometry>
        </mxCell>
        <mxCell id="vbHa7b0eRuLoPrZNxXsy-30" value="&lt;b&gt;20 B&lt;/b&gt;" style="endArrow=open;startArrow=open;html=1;rounded=0;startFill=0;endFill=0;strokeColor=#A4A400;strokeWidth=2;dashed=1;labelBackgroundColor=none;fontSize=9;" parent="1" edge="1">
          <mxGeometry width="50" height="50" relative="1" as="geometry">
            <mxPoint x="-20" y="-40" as="sourcePoint" />
            <mxPoint x="-20" y="-140" as="targetPoint" />
          </mxGeometry>
        </mxCell>
      </root>
    </mxGraphModel>
  </diagram>
  <diagram id="H7WqsRyx-v2Wi6iuOAif" name="第 7 页">
    <mxGraphModel dx="866" dy="768" grid="1" gridSize="10" guides="1" tooltips="1" connect="1" arrows="1" fold="1" page="1" pageScale="1" pageWidth="140" pageHeight="80" math="0" shadow="0">
      <root>
        <mxCell id="0" />
        <mxCell id="1" parent="0" />
        <mxCell id="anN_KX_xqNPFYO3Fpbns-1" value="源端口" style="rounded=0;whiteSpace=wrap;html=1;glass=1;fillColor=none;strokeWidth=2;strokeColor=#006600;fontSize=8;fontStyle=1" vertex="1" parent="1">
          <mxGeometry x="50" y="-210" width="160" height="20" as="geometry" />
        </mxCell>
        <mxCell id="anN_KX_xqNPFYO3Fpbns-2" value="目的端口" style="rounded=0;whiteSpace=wrap;html=1;glass=1;fillColor=none;strokeWidth=2;strokeColor=#006600;fontSize=8;fontStyle=1" vertex="1" parent="1">
          <mxGeometry x="210" y="-210" width="160" height="20" as="geometry" />
        </mxCell>
        <mxCell id="anN_KX_xqNPFYO3Fpbns-3" value="长度" style="rounded=0;whiteSpace=wrap;html=1;glass=1;fillColor=none;strokeWidth=2;strokeColor=#006600;fontSize=8;fontStyle=1" vertex="1" parent="1">
          <mxGeometry x="50" y="-190" width="160" height="20" as="geometry" />
        </mxCell>
        <mxCell id="anN_KX_xqNPFYO3Fpbns-4" value="检验和" style="rounded=0;whiteSpace=wrap;html=1;glass=1;fillColor=none;strokeWidth=2;strokeColor=#006600;fontSize=8;fontStyle=1" vertex="1" parent="1">
          <mxGeometry x="210" y="-190" width="160" height="20" as="geometry" />
        </mxCell>
        <mxCell id="Qydy7h2t2wjQ3oOKv76O-1" value="&lt;b&gt;&lt;font&gt;32 bit&lt;/font&gt;&lt;/b&gt;" style="endArrow=open;startArrow=open;html=1;rounded=0;startFill=0;endFill=0;strokeColor=#A4A400;strokeWidth=2;dashed=1;labelBackgroundColor=none;fontSize=9;" edge="1" parent="1">
          <mxGeometry width="50" height="50" relative="1" as="geometry">
            <mxPoint x="50" y="-220" as="sourcePoint" />
            <mxPoint x="370" y="-220" as="targetPoint" />
          </mxGeometry>
        </mxCell>
        <mxCell id="Qydy7h2t2wjQ3oOKv76O-2" value="" style="endArrow=none;html=1;rounded=0;exitX=0;exitY=0;exitDx=0;exitDy=0;strokeWidth=2;strokeColor=#006600;" edge="1" parent="1">
          <mxGeometry width="50" height="50" relative="1" as="geometry">
            <mxPoint x="50" y="-210" as="sourcePoint" />
            <mxPoint x="50" y="-230" as="targetPoint" />
          </mxGeometry>
        </mxCell>
        <mxCell id="Qydy7h2t2wjQ3oOKv76O-3" value="" style="endArrow=none;html=1;rounded=0;exitX=0;exitY=0;exitDx=0;exitDy=0;strokeWidth=2;strokeColor=#006600;" edge="1" parent="1">
          <mxGeometry width="50" height="50" relative="1" as="geometry">
            <mxPoint x="370" y="-210" as="sourcePoint" />
            <mxPoint x="370" y="-230" as="targetPoint" />
          </mxGeometry>
        </mxCell>
      </root>
    </mxGraphModel>
  </diagram>
  <diagram id="91v2jeZaLAOp3mr38EXq" name="第 8 页">
    <mxGraphModel dx="720" dy="437" grid="1" gridSize="10" guides="1" tooltips="1" connect="1" arrows="1" fold="1" page="1" pageScale="1" pageWidth="380" pageHeight="280" math="0" shadow="0">
      <root>
        <mxCell id="0" />
        <mxCell id="1" parent="0" />
        <mxCell id="VMtbdYk21ih_fd9Q0Vn0-8" value="SYN=1, seq=x" style="rounded=0;orthogonalLoop=1;jettySize=auto;html=1;exitX=1;exitY=1;exitDx=0;exitDy=0;entryX=0;entryY=1;entryDx=0;entryDy=0;endArrow=open;endFill=0;strokeWidth=1;fontSize=8;fontStyle=1;labelBackgroundColor=none;" edge="1" parent="1" source="VMtbdYk21ih_fd9Q0Vn0-1" target="VMtbdYk21ih_fd9Q0Vn0-5">
          <mxGeometry relative="1" as="geometry">
            <mxPoint as="offset" />
          </mxGeometry>
        </mxCell>
        <mxCell id="VMtbdYk21ih_fd9Q0Vn0-1" value="CLOSED" style="rounded=0;whiteSpace=wrap;html=1;dashed=1;strokeWidth=2;strokeColor=#006600;fontSize=10;fontStyle=1;fillColor=none;" vertex="1" parent="1">
          <mxGeometry x="70" y="91" width="80" height="40" as="geometry" />
        </mxCell>
        <mxCell id="VMtbdYk21ih_fd9Q0Vn0-2" value="SYN-SENT&lt;div&gt;同步发送&lt;/div&gt;" style="rounded=0;whiteSpace=wrap;html=1;dashed=1;strokeWidth=2;strokeColor=#620000;fontSize=10;fontStyle=1;fillColor=none;" vertex="1" parent="1">
          <mxGeometry x="70" y="131" width="80" height="70" as="geometry" />
        </mxCell>
        <mxCell id="VMtbdYk21ih_fd9Q0Vn0-3" value="ESTABLISHED" style="rounded=0;whiteSpace=wrap;html=1;dashed=1;strokeWidth=2;strokeColor=#430085;fontSize=10;fontStyle=1;fillColor=none;" vertex="1" parent="1">
          <mxGeometry x="70" y="201" width="80" height="70" as="geometry" />
        </mxCell>
        <mxCell id="VMtbdYk21ih_fd9Q0Vn0-4" value="CLOSED" style="rounded=0;whiteSpace=wrap;html=1;dashed=1;strokeWidth=2;strokeColor=#006600;fontSize=10;fontStyle=1;fillColor=none;" vertex="1" parent="1">
          <mxGeometry x="230" y="91" width="80" height="40" as="geometry" />
        </mxCell>
        <mxCell id="VMtbdYk21ih_fd9Q0Vn0-5" value="LISTEN&lt;div&gt;监听&lt;/div&gt;" style="rounded=0;whiteSpace=wrap;html=1;dashed=1;strokeWidth=2;strokeColor=#620000;fontSize=10;fontStyle=1;fillColor=none;" vertex="1" parent="1">
          <mxGeometry x="230" y="131" width="80" height="40" as="geometry" />
        </mxCell>
        <mxCell id="VMtbdYk21ih_fd9Q0Vn0-6" value="SYN-RCVD&lt;div&gt;同步接收&lt;/div&gt;" style="rounded=0;whiteSpace=wrap;html=1;dashed=1;strokeWidth=2;strokeColor=#430085;fontSize=10;fontStyle=1;fillColor=none;" vertex="1" parent="1">
          <mxGeometry x="230" y="171" width="80" height="60" as="geometry" />
        </mxCell>
        <mxCell id="VMtbdYk21ih_fd9Q0Vn0-7" value="ESTABLISHED" style="rounded=0;whiteSpace=wrap;html=1;dashed=1;strokeWidth=2;strokeColor=#A4A400;fontSize=10;fontStyle=1;fillColor=none;" vertex="1" parent="1">
          <mxGeometry x="230" y="231" width="80" height="40" as="geometry" />
        </mxCell>
        <mxCell id="VMtbdYk21ih_fd9Q0Vn0-9" value="SYN=1, seq=y&lt;div&gt;ACK=1, ack=x+1&lt;/div&gt;" style="rounded=0;orthogonalLoop=1;jettySize=auto;html=1;exitX=0;exitY=0;exitDx=0;exitDy=0;entryX=1;entryY=0;entryDx=0;entryDy=0;endArrow=open;endFill=0;strokeWidth=1;fontSize=8;fontStyle=1;labelBackgroundColor=none;" edge="1" parent="1" source="VMtbdYk21ih_fd9Q0Vn0-6" target="VMtbdYk21ih_fd9Q0Vn0-3">
          <mxGeometry relative="1" as="geometry">
            <mxPoint x="160" y="191" as="sourcePoint" />
            <mxPoint x="240" y="231" as="targetPoint" />
          </mxGeometry>
        </mxCell>
        <mxCell id="VMtbdYk21ih_fd9Q0Vn0-10" value="&lt;div&gt;seq=x+1&lt;/div&gt;ACK=1, ack=y+1" style="rounded=0;orthogonalLoop=1;jettySize=auto;html=1;exitX=1;exitY=0;exitDx=0;exitDy=0;entryX=0;entryY=0;entryDx=0;entryDy=0;endArrow=open;endFill=0;strokeWidth=1;fontSize=8;fontStyle=1;labelBackgroundColor=none;" edge="1" parent="1" source="VMtbdYk21ih_fd9Q0Vn0-3" target="VMtbdYk21ih_fd9Q0Vn0-7">
          <mxGeometry relative="1" as="geometry">
            <mxPoint x="240" y="211" as="sourcePoint" />
            <mxPoint x="160" y="251" as="targetPoint" />
          </mxGeometry>
        </mxCell>
        <mxCell id="VMtbdYk21ih_fd9Q0Vn0-11" value="" style="image;aspect=fixed;perimeter=ellipsePerimeter;html=1;align=center;shadow=0;dashed=0;spacingTop=3;image=img/lib/active_directory/laptop_client.svg;" vertex="1" parent="1">
          <mxGeometry x="87.5" y="41" width="36" height="40" as="geometry" />
        </mxCell>
        <mxCell id="VMtbdYk21ih_fd9Q0Vn0-12" value="" style="image;aspect=fixed;perimeter=ellipsePerimeter;html=1;align=center;shadow=0;dashed=0;spacingTop=3;image=img/lib/active_directory/database_server.svg;" vertex="1" parent="1">
          <mxGeometry x="253.60000000000002" y="41" width="32.8" height="40" as="geometry" />
        </mxCell>
        <mxCell id="VMtbdYk21ih_fd9Q0Vn0-13" value="客户" style="text;html=1;align=center;verticalAlign=middle;resizable=0;points=[];autosize=1;strokeColor=none;fillColor=none;fontStyle=1" vertex="1" parent="1">
          <mxGeometry x="80.5" y="9" width="50" height="30" as="geometry" />
        </mxCell>
        <mxCell id="VMtbdYk21ih_fd9Q0Vn0-14" value="服务器" style="text;html=1;align=center;verticalAlign=middle;resizable=0;points=[];autosize=1;strokeColor=none;fillColor=none;fontStyle=1" vertex="1" parent="1">
          <mxGeometry x="240" y="9" width="60" height="30" as="geometry" />
        </mxCell>
        <mxCell id="VMtbdYk21ih_fd9Q0Vn0-15" value="主动打开" style="rounded=0;orthogonalLoop=1;jettySize=auto;html=1;endArrow=open;endFill=0;strokeWidth=2;fontSize=8;fontStyle=1;labelBackgroundColor=none;" edge="1" parent="1">
          <mxGeometry y="10" relative="1" as="geometry">
            <mxPoint x="20" y="131" as="sourcePoint" />
            <mxPoint x="70" y="131" as="targetPoint" />
            <mxPoint as="offset" />
          </mxGeometry>
        </mxCell>
        <mxCell id="VMtbdYk21ih_fd9Q0Vn0-16" value="被动打开" style="rounded=0;orthogonalLoop=1;jettySize=auto;html=1;endArrow=open;endFill=0;strokeWidth=2;fontSize=8;fontStyle=1;labelBackgroundColor=none;entryX=1;entryY=0;entryDx=0;entryDy=0;" edge="1" parent="1" target="VMtbdYk21ih_fd9Q0Vn0-5">
          <mxGeometry x="0.2" y="-10" relative="1" as="geometry">
            <mxPoint x="360" y="131" as="sourcePoint" />
            <mxPoint x="370" y="161" as="targetPoint" />
            <mxPoint as="offset" />
          </mxGeometry>
        </mxCell>
        <mxCell id="VMtbdYk21ih_fd9Q0Vn0-19" value="数据传输" style="html=1;labelBackgroundColor=none;startArrow=classic;startFill=1;startSize=6;endArrow=classic;endFill=1;endSize=6;jettySize=auto;orthogonalLoop=1;strokeWidth=1;fontSize=8;rounded=0;spacingTop=0;spacingBottom=15;" edge="1" parent="1">
          <mxGeometry width="60" height="60" relative="1" as="geometry">
            <mxPoint x="164" y="250.76" as="sourcePoint" />
            <mxPoint x="214" y="250.76" as="targetPoint" />
          </mxGeometry>
        </mxCell>
      </root>
    </mxGraphModel>
  </diagram>
  <diagram id="y0ji-f8SoNC4Qdl1hGp2" name="第 9 页">
    <mxGraphModel dx="720" dy="437" grid="1" gridSize="10" guides="1" tooltips="1" connect="1" arrows="1" fold="1" page="1" pageScale="1" pageWidth="440" pageHeight="300" math="0" shadow="0">
      <root>
        <mxCell id="0" />
        <mxCell id="1" parent="0" />
        <mxCell id="CJNVZebSxUKQfEaavJf9-19" value="主动关闭" style="edgeStyle=orthogonalEdgeStyle;rounded=0;orthogonalLoop=1;jettySize=auto;html=1;exitX=0;exitY=0.5;exitDx=0;exitDy=0;entryX=0;entryY=0;entryDx=0;entryDy=0;labelBackgroundColor=none;fontStyle=1;fontSize=8;strokeColor=#006600;" parent="1" source="O81cG1VQbc8uKma3dS2f-1" target="CJNVZebSxUKQfEaavJf9-2" edge="1">
          <mxGeometry relative="1" as="geometry">
            <Array as="points">
              <mxPoint x="19.97" y="40" />
              <mxPoint x="19.97" y="100" />
            </Array>
          </mxGeometry>
        </mxCell>
        <mxCell id="O81cG1VQbc8uKma3dS2f-1" value="" style="image;aspect=fixed;perimeter=ellipsePerimeter;html=1;align=center;shadow=0;dashed=0;spacingTop=3;image=img/lib/active_directory/laptop_client.svg;" parent="1" vertex="1">
          <mxGeometry x="82.47" y="20" width="36" height="40" as="geometry" />
        </mxCell>
        <mxCell id="CJNVZebSxUKQfEaavJf9-20" value="被动关闭" style="edgeStyle=orthogonalEdgeStyle;rounded=0;orthogonalLoop=1;jettySize=auto;html=1;exitX=1;exitY=0.5;exitDx=0;exitDy=0;entryX=1;entryY=0.5;entryDx=0;entryDy=0;labelBackgroundColor=none;fontStyle=1;fontSize=8;strokeColor=#006600;" parent="1" source="O81cG1VQbc8uKma3dS2f-2" target="CJNVZebSxUKQfEaavJf9-7" edge="1">
          <mxGeometry x="0.1144" relative="1" as="geometry">
            <Array as="points">
              <mxPoint x="419.97" y="40" />
              <mxPoint x="419.97" y="150" />
            </Array>
            <mxPoint as="offset" />
          </mxGeometry>
        </mxCell>
        <mxCell id="O81cG1VQbc8uKma3dS2f-2" value="" style="image;aspect=fixed;perimeter=ellipsePerimeter;html=1;align=center;shadow=0;dashed=0;spacingTop=3;image=img/lib/active_directory/database_server.svg;" parent="1" vertex="1">
          <mxGeometry x="303.57000000000005" y="20" width="32.8" height="40" as="geometry" />
        </mxCell>
        <mxCell id="VdIC4G6BdO52W_Annh1l-1" value="客户" style="text;html=1;align=center;verticalAlign=middle;resizable=0;points=[];autosize=1;strokeColor=none;fillColor=none;fontStyle=1" parent="1" vertex="1">
          <mxGeometry x="74.97" width="50" height="30" as="geometry" />
        </mxCell>
        <mxCell id="VdIC4G6BdO52W_Annh1l-2" value="服务器" style="text;html=1;align=center;verticalAlign=middle;resizable=0;points=[];autosize=1;strokeColor=none;fillColor=none;fontStyle=1" parent="1" vertex="1">
          <mxGeometry x="289.97" width="60" height="30" as="geometry" />
        </mxCell>
        <mxCell id="CJNVZebSxUKQfEaavJf9-1" value="ESTABLISHED" style="rounded=0;whiteSpace=wrap;html=1;dashed=1;strokeWidth=2;strokeColor=#006600;fontSize=10;fontStyle=1;fillColor=none;" parent="1" vertex="1">
          <mxGeometry x="60.47" y="60" width="80" height="40" as="geometry" />
        </mxCell>
        <mxCell id="CJNVZebSxUKQfEaavJf9-2" value="FIN-WAIT-1" style="rounded=0;whiteSpace=wrap;html=1;dashed=1;strokeWidth=2;strokeColor=#430085;fontSize=10;fontStyle=1;fillColor=none;" parent="1" vertex="1">
          <mxGeometry x="60.47" y="100" width="80" height="50" as="geometry" />
        </mxCell>
        <mxCell id="CJNVZebSxUKQfEaavJf9-21" value="等待2MSL" style="edgeStyle=orthogonalEdgeStyle;rounded=0;orthogonalLoop=1;jettySize=auto;html=1;exitX=0;exitY=0.75;exitDx=0;exitDy=0;entryX=0;entryY=1;entryDx=0;entryDy=0;fontStyle=1;fontSize=8;strokeColor=#006600;labelBackgroundColor=none;" parent="1" source="CJNVZebSxUKQfEaavJf9-3" target="CJNVZebSxUKQfEaavJf9-4" edge="1">
          <mxGeometry relative="1" as="geometry">
            <Array as="points">
              <mxPoint x="19.97" y="180" />
              <mxPoint x="19.97" y="250" />
            </Array>
          </mxGeometry>
        </mxCell>
        <mxCell id="CJNVZebSxUKQfEaavJf9-3" value="FIN-WAIT-1" style="rounded=0;whiteSpace=wrap;html=1;dashed=1;strokeWidth=2;strokeColor=#A4A400;fontSize=10;fontStyle=1;fillColor=none;" parent="1" vertex="1">
          <mxGeometry x="59.97" y="150" width="80" height="40" as="geometry" />
        </mxCell>
        <mxCell id="CJNVZebSxUKQfEaavJf9-4" value="TIME-WAIT" style="rounded=0;whiteSpace=wrap;html=1;dashed=1;strokeWidth=2;strokeColor=#990000;fontSize=10;fontStyle=1;fillColor=none;" parent="1" vertex="1">
          <mxGeometry x="60.47" y="190" width="80" height="60" as="geometry" />
        </mxCell>
        <mxCell id="CJNVZebSxUKQfEaavJf9-5" value="CLOSED" style="rounded=0;whiteSpace=wrap;html=1;dashed=1;strokeWidth=2;strokeColor=#0000CC;fontSize=10;fontStyle=1;fillColor=none;" parent="1" vertex="1">
          <mxGeometry x="60.47" y="250" width="80" height="40" as="geometry" />
        </mxCell>
        <mxCell id="CJNVZebSxUKQfEaavJf9-6" value="ESTABLISHED" style="rounded=0;whiteSpace=wrap;html=1;dashed=1;strokeWidth=2;strokeColor=#006600;fontSize=10;fontStyle=1;fillColor=none;" parent="1" vertex="1">
          <mxGeometry x="279.97" y="60" width="80" height="70" as="geometry" />
        </mxCell>
        <mxCell id="CJNVZebSxUKQfEaavJf9-22" value="通知应用进程" style="edgeStyle=orthogonalEdgeStyle;rounded=0;orthogonalLoop=1;jettySize=auto;html=1;exitX=1;exitY=0;exitDx=0;exitDy=0;entryX=1;entryY=0.75;entryDx=0;entryDy=0;curved=1;fontStyle=1;fontSize=8;strokeColor=#006600;labelBackgroundColor=none;" parent="1" source="CJNVZebSxUKQfEaavJf9-7" target="O81cG1VQbc8uKma3dS2f-2" edge="1">
          <mxGeometry relative="1" as="geometry">
            <Array as="points">
              <mxPoint x="389.97" y="130" />
              <mxPoint x="389.97" y="49" />
            </Array>
          </mxGeometry>
        </mxCell>
        <mxCell id="CJNVZebSxUKQfEaavJf9-7" value="CLOSED-WAIT" style="rounded=0;whiteSpace=wrap;html=1;dashed=1;strokeWidth=2;strokeColor=#430085;fontSize=10;fontStyle=1;fillColor=none;" parent="1" vertex="1">
          <mxGeometry x="279.97" y="130" width="80" height="40" as="geometry" />
        </mxCell>
        <mxCell id="CJNVZebSxUKQfEaavJf9-8" value="LAST-ACK" style="rounded=0;whiteSpace=wrap;html=1;dashed=1;strokeWidth=2;strokeColor=#A4A400;fontSize=10;fontStyle=1;fillColor=none;" parent="1" vertex="1">
          <mxGeometry x="279.97" y="170" width="80" height="80" as="geometry" />
        </mxCell>
        <mxCell id="CJNVZebSxUKQfEaavJf9-9" value="CLOSED" style="rounded=0;whiteSpace=wrap;html=1;dashed=1;strokeWidth=2;strokeColor=#990000;fontSize=10;fontStyle=1;fillColor=none;" parent="1" vertex="1">
          <mxGeometry x="279.97" y="250" width="80" height="40" as="geometry" />
        </mxCell>
        <mxCell id="CJNVZebSxUKQfEaavJf9-10" value="FIN=1, seq=u" style="rounded=0;orthogonalLoop=1;jettySize=auto;html=1;exitX=1;exitY=0;exitDx=0;exitDy=0;entryX=0;entryY=0;entryDx=0;entryDy=0;endArrow=open;endFill=0;labelBackgroundColor=none;fontSize=8;fontStyle=1" parent="1" source="CJNVZebSxUKQfEaavJf9-2" target="CJNVZebSxUKQfEaavJf9-7" edge="1">
          <mxGeometry relative="1" as="geometry" />
        </mxCell>
        <mxCell id="CJNVZebSxUKQfEaavJf9-11" value="seq=v&lt;div&gt;ACK=1, ack=u+1&lt;/div&gt;" style="rounded=0;orthogonalLoop=1;jettySize=auto;html=1;exitX=0;exitY=0;exitDx=0;exitDy=0;entryX=1;entryY=0;entryDx=0;entryDy=0;endArrow=open;endFill=0;labelBackgroundColor=none;fontSize=8;fontStyle=1" parent="1" source="CJNVZebSxUKQfEaavJf9-7" target="CJNVZebSxUKQfEaavJf9-3" edge="1">
          <mxGeometry relative="1" as="geometry">
            <mxPoint x="150.97" y="110" as="sourcePoint" />
            <mxPoint x="287.97" y="137" as="targetPoint" />
          </mxGeometry>
        </mxCell>
        <mxCell id="CJNVZebSxUKQfEaavJf9-12" value="&lt;span style=&quot;color: rgb(0, 0, 0); font-family: Helvetica; font-style: normal; font-variant-ligatures: normal; font-variant-caps: normal; letter-spacing: normal; orphans: 2; text-align: center; text-indent: 0px; text-transform: none; widows: 2; word-spacing: 0px; -webkit-text-stroke-width: 0px; white-space: nowrap; text-decoration-thickness: initial; text-decoration-style: initial; text-decoration-color: initial; float: none; display: inline !important;&quot;&gt;FIN=1, seq=w&lt;/span&gt;&lt;div style=&quot;forced-color-adjust: none; color: rgb(0, 0, 0); font-family: Helvetica; font-style: normal; font-variant-ligatures: normal; font-variant-caps: normal; letter-spacing: normal; orphans: 2; text-align: center; text-indent: 0px; text-transform: none; widows: 2; word-spacing: 0px; -webkit-text-stroke-width: 0px; white-space: nowrap; text-decoration-thickness: initial; text-decoration-style: initial; text-decoration-color: initial;&quot;&gt;ACK=1, ack=u+1&lt;/div&gt;" style="rounded=0;orthogonalLoop=1;jettySize=auto;html=1;exitX=0;exitY=0;exitDx=0;exitDy=0;entryX=1;entryY=0;entryDx=0;entryDy=0;endArrow=open;endFill=0;labelBackgroundColor=none;fontSize=8;fontStyle=1" parent="1" edge="1">
          <mxGeometry relative="1" as="geometry">
            <mxPoint x="279.97" y="170" as="sourcePoint" />
            <mxPoint x="139.97" y="190" as="targetPoint" />
          </mxGeometry>
        </mxCell>
        <mxCell id="CJNVZebSxUKQfEaavJf9-14" value="&lt;span style=&quot;color: rgb(0, 0, 0); font-family: Helvetica; font-style: normal; font-variant-ligatures: normal; font-variant-caps: normal; letter-spacing: normal; orphans: 2; text-align: center; text-indent: 0px; text-transform: none; widows: 2; word-spacing: 0px; -webkit-text-stroke-width: 0px; white-space: nowrap; text-decoration-thickness: initial; text-decoration-style: initial; text-decoration-color: initial; float: none; display: inline !important;&quot;&gt;seq=u+1&lt;/span&gt;&lt;div style=&quot;forced-color-adjust: none; color: rgb(0, 0, 0); font-family: Helvetica; font-style: normal; font-variant-ligatures: normal; font-variant-caps: normal; letter-spacing: normal; orphans: 2; text-align: center; text-indent: 0px; text-transform: none; widows: 2; word-spacing: 0px; -webkit-text-stroke-width: 0px; white-space: nowrap; text-decoration-thickness: initial; text-decoration-style: initial; text-decoration-color: initial;&quot;&gt;ACK=1, ack=w+1&lt;/div&gt;" style="rounded=0;orthogonalLoop=1;jettySize=auto;html=1;exitX=1;exitY=0;exitDx=0;exitDy=0;entryX=0;entryY=1;entryDx=0;entryDy=0;endArrow=open;endFill=0;labelBackgroundColor=none;fontSize=8;fontStyle=1" parent="1" source="CJNVZebSxUKQfEaavJf9-4" target="CJNVZebSxUKQfEaavJf9-8" edge="1">
          <mxGeometry relative="1" as="geometry">
            <mxPoint x="152.97" y="196" as="sourcePoint" />
            <mxPoint x="289.97" y="224" as="targetPoint" />
          </mxGeometry>
        </mxCell>
        <mxCell id="CJNVZebSxUKQfEaavJf9-16" value="数据传送" style="html=1;labelBackgroundColor=none;startArrow=classic;startFill=1;startSize=6;endArrow=classic;endFill=1;endSize=6;jettySize=auto;orthogonalLoop=1;strokeWidth=1;fontSize=10;rounded=0;fontStyle=1;fontColor=#990000;" parent="1" edge="1">
          <mxGeometry width="60" height="60" relative="1" as="geometry">
            <mxPoint x="169.97" y="79.8" as="sourcePoint" />
            <mxPoint x="249.97" y="79.8" as="targetPoint" />
          </mxGeometry>
        </mxCell>
        <mxCell id="CJNVZebSxUKQfEaavJf9-18" value="数据传送" style="html=1;labelBackgroundColor=none;startArrow=classic;startFill=1;startSize=6;endArrow=classic;endFill=1;endSize=6;jettySize=auto;orthogonalLoop=1;strokeWidth=1;fontSize=10;rounded=0;fontStyle=1;fontColor=#990000;" parent="1" edge="1">
          <mxGeometry width="60" height="60" relative="1" as="geometry">
            <mxPoint x="169.97" y="160" as="sourcePoint" />
            <mxPoint x="249.97" y="160" as="targetPoint" />
          </mxGeometry>
        </mxCell>
      </root>
    </mxGraphModel>
  </diagram>
</mxfile>
